
<svg xmlns="http://www.w3.org/2000/svg" version="1.1" xmlns:xlink="http://www.w3.org/1999/xlink" preserveAspectRatio="none" x="0px" y="0px" width="760px" height="480px" viewBox="0 0 760 480">
<defs>
<radialGradient id="Gradient_1" gradientUnits="userSpaceOnUse" cx="0" cy="0" r="76.05" fx="0" fy="0" gradientTransform="matrix( 1, 0, 0, 0.9311308349769889, 36.75,32.8) " spreadMethod="pad">
<stop  offset="0%" stop-color="#E9F4FC"/>

<stop  offset="41.568627450980394%" stop-color="#B8E2FC"/>

<stop  offset="100%" stop-color="#43B5FC"/>
</radialGradient>

<radialGradient id="Gradient_2" gradientUnits="userSpaceOnUse" cx="0" cy="0" r="70.37089797103629" fx="0" fy="0" gradientTransform="matrix( 0.9988148798233241, -0.04867068772391798, 0.052223292667269654, 0.9300719741694691, 36.4,33.15) " spreadMethod="pad">
<stop  offset="0%" stop-color="#B2DFFC"/>

<stop  offset="100%" stop-color="#3EB3FC"/>
</radialGradient>

<filter id="Filter_1" x="-20%" y="-20%" width="140%" height="140%" color-interpolation-filters="sRGB">
<feColorMatrix in="SourceGraphic" type="matrix" values="1 0 0 0 -0.1411764705882353 0 1 0 0 -0.03137254901960784 0 0 1 0 0.4 0 0 0 1 0" result="result1"/>
</filter>

<g id="Layer0_0_FILL">
<path fill="#000000" fill-opacity="0.10196078431372549" stroke="none" d="
M 389.5 26.65
Q 389.25 32.25 389.05 37.85 381.9 226.1 390.15 407.55
L 401.55 404.35
Q 395.05 395.7 391.75 261.4 388.6 133.1 399.25 32.75 399.75 28 400.3 23.3
L 389.5 26.65
M 373.4 32.6
Q 373.3 30.5 373.25 28.4
L 373.2 28.4 373.2 27.6 362.7 23
Q 363.05 26.6 363.35 30.25 371.4 121.8 369.45 254.3 367.4 392.1 358.8 403.7
L 373.2 408.15 373.2 408
Q 378.55 221.8 373.4 32.6 Z"/>

<path fill="#000000" fill-opacity="0.25098039215686274" stroke="none" d="
M 389.05 37.85
Q 389.25 32.25 389.5 26.65
L 388.55 28.25
Q 383.9 28.65 380.9 31.4
L 380.7 412.25 390.15 407.55
Q 381.9 226.1 389.05 37.85
M 373.25 28.4
Q 373.3 30.5 373.4 32.6 378.55 221.8 373.2 408
L 380.7 412.25 380.9 31.4
Q 377.65 29.2 373.25 28.4 Z"/>

<path fill="#000000" fill-opacity="0.2" stroke="none" d="
M 671.75 29.3
L 671.6 28.8 671.2 28.4 670.65 28.3 656.1 29.55
Q 594.4 34.45 539.6 29.95
L 534.4 29.55
Q 449.55 22.8 413.65 29.6 403.6 31.25 400.75 32.2 400.05 32.4 399.25 32.75 388.6 133.1 391.75 261.4 395.05 395.7 401.55 404.35
L 390.15 407.55 380.7 412.25 373.2 408 373.2 408.15 358.8 403.7
Q 367.4 392.1 369.45 254.3 371.4 121.8 363.35 30.25 361.6 29.95 359.5 29.6
L 351.75 28.35 351.75 25.1 347.25 24.8
Q 311.5 22.5 252.2 26.75
L 233.85 28.15 180.4 30.5
Q 153 30.7 124.25 29
L 108.45 27.9 108.45 28.85 102.4 28.3 101.85 28.4 101.45 28.8
Q 101.3 29 101.3 29.3
L 101.3 31.3 100.15 30.95 99.9 30.95 99.7 31.1 99.6 31.3 99.6 33.4 98.7 33.15 98.45 33.15
Q 98.3 33.15 98.25 33.3
L 98.15 33.5 98.15 35.95 97.15 35.75 97.05 35.65
Q 96.75 35.35 96.35 35.35 95.95 35.35 95.65 35.65 95.35 35.95 95.35 36.35
L 95.25 415.6 95.5 416.25 96.15 416.6
Q 151.75 424.2 237.05 418.9
L 309.5 415.9 347.25 417.4 357.4 418.9
Q 367.2 420.55 375.45 422.6
L 381.25 423.5
Q 384.7 423.55 386.55 422.2 389.65 424.55 397.65 422.6 405.85 420.55 415.75 418.9 432.55 415.7 463.55 415.9
L 536 418.9
Q 621.3 424.2 676.95 416.6
L 677.55 416.25 677.8 415.6 677.8 117.15 677.75 117.2 677.7 36.35 677.4 35.65 676.7 35.35
Q 676.3 35.35 676 35.65
L 675.9 35.75 674.9 35.95 674.9 33.5 674.85 33.25 674.65 33.15 674.4 33.15 673.45 33.4 673.45 31.3 673.4 31.1 673.2 30.95 672.95 30.95 671.75 31.3 671.75 29.3
M 394.8 313.2
L 394.8 130.2 658.95 130.2 394.8 313.2 Z"/>
</g>

<g id="Sprites_Sprite_67_0_Layer0_0_FILL">
<path fill="#D1D1D1" stroke="none" d="
M -139.1 -192.75
L -141.4 -193.5 -141.4 -190.85 -141.6 187.15
Q -124.85 189.55 -91.9 190.85 -53.75 192.35 -29.3 190.1
L 49.8 185.55
Q 106.7 182.85 145.15 195.95 140.1 192.5 133.75 190.15 127.4 187.75 117.55 186.1 81.65 179.35 -3 186.1
L -8.2 186.5
Q -63.1 191 -124.8 186.1
L -139.7 184.8 -139.1 -192.75
M -142.85 -188
L -145.05 -188.45 -145.15 190.8
Q -89.6 198.4 -4.4 193.1
L 68.1 190.1
Q 99.2 189.9 116.15 193.1 126 194.75 134.3 196.8 142.55 198.85 145.15 195.95 106.7 182.85 49.8 185.55
L -29.3 190.1
Q -53.75 192.35 -91.9 190.85 -124.85 189.55 -141.6 187.15
L -141.4 -190.85 -142.85 -191.3 -142.85 -188 -143.1 188.85
Q -126.75 191.25 -92.25 192.6 -53.75 194.1 -29.3 191.85
L 49.8 187.3
Q 105.25 184.7 142.4 196.65 105.25 184.7 49.8 187.3
L -29.3 191.85
Q -53.75 194.1 -92.25 192.6 -126.75 191.25 -143.1 188.85
L -142.85 -188 Z"/>

<path fill="#FFFFFF" stroke="none" d="
M 145.15 -184.4
Q 135.15 -190.15 130.6 -191.65 127.75 -192.6 117.9 -194.25 82 -201 -2.65 -194.25
L -7.85 -193.85
Q -62.75 -189.35 -124.45 -194.25
L -139.1 -195.5 -139.1 -192.75 -139.7 184.8 -124.8 186.1
Q -63.1 191 -8.2 186.5
L -3 186.1
Q 81.65 179.35 117.55 186.1 127.4 187.75 133.75 190.15 140.1 192.5 145.15 195.95
L 145.15 190.6 145.15 189.85 145.15 -184.4 Z"/>
</g>

<g id="Sprites_Sprite_68_0_Layer0_0_FILL">
<path fill="#D1D1D1" stroke="none" d="
M -139.1 -192.75
L -141.4 -193.5 -141.4 -190.85 -141.6 187.15
Q -124.85 189.55 -91.9 190.85 -53.75 192.35 -29.3 190.1
L 49.8 185.55
Q 106.7 182.85 145.15 195.95 140.1 192.5 133.75 190.15 127.4 187.75 117.55 186.1 81.65 179.35 -3 186.1
L -8.2 186.5
Q -63.1 191 -124.8 186.1
L -139.7 184.8 -139.1 -192.75
M -142.85 -188
L -145.05 -188.45 -145.15 190.8
Q -89.6 198.4 -4.4 193.1
L 68.1 190.1
Q 99.2 189.9 116.15 193.1 126 194.75 134.3 196.8 142.55 198.85 145.15 195.95 106.7 182.85 49.8 185.55
L -29.3 190.1
Q -53.75 192.35 -91.9 190.85 -124.85 189.55 -141.6 187.15
L -141.4 -190.85 -142.85 -191.3 -142.85 -188 -143.1 188.85
Q -126.75 191.25 -92.25 192.6 -53.75 194.1 -29.3 191.85
L 49.8 187.3
Q 105.25 184.7 142.4 196.65 105.25 184.7 49.8 187.3
L -29.3 191.85
Q -53.75 194.1 -92.25 192.6 -126.75 191.25 -143.1 188.85
L -142.85 -188 Z"/>

<path fill="#FFFFFF" stroke="none" d="
M 145.15 -184.4
Q 135.15 -190.15 130.6 -191.65 127.75 -192.6 117.9 -194.25 82 -201 -2.65 -194.25
L -7.85 -193.85
Q -62.75 -189.35 -124.45 -194.25
L -139.1 -195.5 -139.1 -192.75 -139.7 184.8 -124.8 186.1
Q -63.1 191 -8.2 186.5
L -3 186.1
Q 81.65 179.35 117.55 186.1 127.4 187.75 133.75 190.15 140.1 192.5 145.15 195.95
L 145.15 190.6 145.15 189.85 145.15 -184.4 Z"/>
</g>

<g id="Shapes_Shape_70_0_Layer0_0_FILL">
<path fill="url(#Gradient_1)" stroke="none" d="
M 76 71.75
L 76 49.35 35.7 32.1 76 71.75
M 35.45 32.55
L 17.8 40.6 17.8 50.45 35.45 32.55
M 35.65 32.4
L 35.55 32.55 17.8 79.8 17.8 85.2 24.25 85.2 35.65 32.4
M 35.8 32.5
L 35.75 32.5 53.9 85.2 73.35 85.2 35.8 32.5
M 35.75 32.45
L 35.65 32.45 32.75 85.2 47.95 85.2 35.75 32.5 35.75 32.45
M 17.8 27.1
L 17.8 34.85 35.35 32.3 17.8 27.1
M 17.8 3
L 17.8 14.7 35.3 32.1 35.35 31.95 26.2 3 17.8 3
M 76 9.25
L 76 3 63.5 3 35.5 31.9 35.45 32 35.6 31.95 76 9.25
M 46.1 3
L 40.6 3 35.45 31.9 35.5 31.9 46.1 3
M 76 42.5
L 76 26.75 35.65 32.05 35.75 32.05 76 42.5 Z"/>

<path fill="url(#Gradient_2)" stroke="none" d="
M 47.95 85.2
L 53.9 85.2 35.75 32.5 47.95 85.2
M 35.35 31.95
L 35.45 31.9 40.6 3 26.2 3 35.35 31.95
M 35.55 32.55
L 35.45 32.55 17.8 50.45 17.8 79.8 35.55 32.55
M 35.7 32.1
L 35.6 32.15 35.8 32.5 73.35 85.2 76 85.2 76 71.75 35.7 32.1
M 35.65 32.45
L 35.65 32.4 24.25 85.2 32.75 85.2 35.65 32.45
M 17.8 34.85
L 17.8 40.6 35.45 32.55
Q 35.8 32.2 35.45 32.3
L 35.4 32.2 35.3 32.1 17.8 14.7 17.8 27.1 35.35 32.3 17.8 34.85
M 76 26.75
L 76 9.25 35.6 31.95 35.65 32.05 76 26.75
M 63.5 3
L 46.1 3 35.5 31.9 63.5 3
M 76 49.35
L 76 42.5 35.75 32.05 35.7 32.1 76 49.35 Z"/>

<path fill="#3399FF" stroke="none" d="
M 35.35 31.95
L 35.3 32.1 35.4 32.2 35.45 32.3
Q 35.8 32.2 35.45 32.55
L 35.55 32.55 35.65 32.4 35.65 32.45 35.75 32.45 35.75 32.5 35.8 32.5 35.6 32.15 35.7 32.1 35.75 32.05 35.65 32.05 35.6 31.95 35.45 32 35.5 31.9 35.45 31.9 35.35 31.95 Z"/>
</g>

<path id="Layer0_0_1_STROKES" stroke="#000000" stroke-width="1" stroke-linejoin="round" stroke-linecap="round" fill="none" d="
M 380.9 31.4
L 380.7 412.25"/>

<path id="Sprites_Sprite_67_0_Layer0_0_1_STROKES" stroke="#000000" stroke-width="2" stroke-linejoin="round" stroke-linecap="round" fill="none" d="
M -139.1 -192.75
L -139.1 -195.5 -124.45 -194.25
Q -62.75 -189.35 -7.85 -193.85
L -2.65 -194.25
Q 82 -201 117.9 -194.25 127.75 -192.6 130.6 -191.65 135.15 -190.15 145.15 -184.4
M 145.15 195.95
Q 142.55 198.85 134.3 196.8 126 194.75 116.15 193.1 99.2 189.9 68.1 190.1
L -4.4 193.1
Q -89.6 198.4 -145.15 190.8
L -145.05 -188.45
M -139.1 -192.75
L -139.7 184.8 -124.8 186.1
Q -63.1 191 -8.2 186.5
L -3 186.1
Q 81.65 179.35 117.55 186.1 127.4 187.75 133.75 190.15 140.1 192.5 145.15 195.95"/>

<path id="Sprites_Sprite_67_0_Layer0_0_2_STROKES" stroke="#000000" stroke-width="0.8" stroke-linejoin="round" stroke-linecap="round" fill="none" d="
M 145.15 -184.4
L 145.15 189.85
M 145.15 190.6
L 145.15 195.95
M -142.85 -188
L -142.85 -191.3 -141.4 -190.85 -141.4 -193.5 -139.1 -192.75
M 145.15 195.95
Q 106.7 182.85 49.8 185.55
L -29.3 190.1
Q -53.75 192.35 -91.9 190.85 -124.85 189.55 -141.6 187.15
L -141.4 -190.85
M 142.4 196.65
Q 105.25 184.7 49.8 187.3
L -29.3 191.85
Q -53.75 194.1 -92.25 192.6 -126.75 191.25 -143.1 188.85
L -142.85 -188"/>

<path id="Sprites_Sprite_67_0_Layer0_0_3_STROKES" stroke="#000000" stroke-width="1.5" stroke-linejoin="round" stroke-linecap="round" fill="none" d="
M -142.85 -188
L -145.05 -188.45"/>

<path id="Sprites_Sprite_68_0_Layer0_0_1_STROKES" stroke="#000000" stroke-width="2" stroke-linejoin="round" stroke-linecap="round" fill="none" d="
M -139.1 -192.75
L -139.1 -195.5 -124.45 -194.25
Q -62.75 -189.35 -7.85 -193.85
L -2.65 -194.25
Q 82 -201 117.9 -194.25 127.75 -192.6 130.6 -191.65 135.15 -190.15 145.15 -184.4
M 145.15 195.95
Q 142.55 198.85 134.3 196.8 126 194.75 116.15 193.1 99.2 189.9 68.1 190.1
L -4.4 193.1
Q -89.6 198.4 -145.15 190.8
L -145.05 -188.45
M -139.1 -192.75
L -139.7 184.8 -124.8 186.1
Q -63.1 191 -8.2 186.5
L -3 186.1
Q 81.65 179.35 117.55 186.1 127.4 187.75 133.75 190.15 140.1 192.5 145.15 195.95"/>

<path id="Sprites_Sprite_68_0_Layer0_0_2_STROKES" stroke="#000000" stroke-width="0.8" stroke-linejoin="round" stroke-linecap="round" fill="none" d="
M 145.15 -184.4
L 145.15 189.85
M 145.15 190.6
L 145.15 195.95
M -142.85 -188
L -142.85 -191.3 -141.4 -190.85 -141.4 -193.5 -139.1 -192.75
M 145.15 195.95
Q 106.7 182.85 49.8 185.55
L -29.3 190.1
Q -53.75 192.35 -91.9 190.85 -124.85 189.55 -141.6 187.15
L -141.4 -190.85
M 142.4 196.65
Q 105.25 184.7 49.8 187.3
L -29.3 191.85
Q -53.75 194.1 -92.25 192.6 -126.75 191.25 -143.1 188.85
L -142.85 -188"/>

<path id="Sprites_Sprite_68_0_Layer0_0_3_STROKES" stroke="#000000" stroke-width="1.5" stroke-linejoin="round" stroke-linecap="round" fill="none" d="
M -142.85 -188
L -145.05 -188.45"/>
</defs>

<g transform="matrix( 1, 0, 0, 1, 0,0) ">
<use xlink:href="#Layer0_0_FILL"/>

<use xlink:href="#Layer0_0_1_STROKES"/>
</g>

<g transform="matrix( 1, 0, 0, 1, 235.65,216.75) ">
<g transform="matrix( 1, 0, 0, 1, 0,0) ">
<use xlink:href="#Sprites_Sprite_67_0_Layer0_0_FILL"/>

<use xlink:href="#Sprites_Sprite_67_0_Layer0_0_1_STROKES"/>

<use xlink:href="#Sprites_Sprite_67_0_Layer0_0_2_STROKES"/>

<use xlink:href="#Sprites_Sprite_67_0_Layer0_0_3_STROKES"/>
</g>
</g>

<g transform="matrix( -1, 0, 0, 1, 525.9,216.75) ">
<g transform="matrix( 1, 0, 0, 1, 0,0) ">
<use xlink:href="#Sprites_Sprite_68_0_Layer0_0_FILL"/>

<use xlink:href="#Sprites_Sprite_68_0_Layer0_0_1_STROKES"/>

<use xlink:href="#Sprites_Sprite_68_0_Layer0_0_2_STROKES"/>

<use xlink:href="#Sprites_Sprite_68_0_Layer0_0_3_STROKES"/>
</g>
</g>

<g transform="matrix( 1, 0, 0, 1, 84.25,12.5) ">
<g transform="matrix( 10.111831665039062, 0, 0, 5, -180,-15) ">
<g transform="matrix( 1, 0, 0, 1, 0,0) ">
<use filter="url(#Filter_1)" xlink:href="#Shapes_Shape_70_0_Layer0_0_FILL"/>
</g>
</g>
</g>
</svg>
