
<svg xmlns="http://www.w3.org/2000/svg" version="1.1" xmlns:xlink="http://www.w3.org/1999/xlink" preserveAspectRatio="none" x="0px" y="0px" width="760px" height="480px" viewBox="0 0 760 480">
<defs>
<linearGradient id="Gradient_1" gradientUnits="userSpaceOnUse" x1="-6.799999999999997" y1="-2.3" x2="-116.3" y2="-2.3" spreadMethod="pad">
<stop  offset="24.313725490196077%" stop-color="#000000"/>

<stop  offset="100%" stop-color="#000000" stop-opacity="0"/>
</linearGradient>

<linearGradient id="Gradient_2" gradientUnits="userSpaceOnUse" x1="4.3" y1="2.6999999999999957" x2="4.3" y2="83.1" spreadMethod="pad">
<stop  offset="24.313725490196077%" stop-color="#000000"/>

<stop  offset="100%" stop-color="#000000" stop-opacity="0"/>
</linearGradient>

<linearGradient id="Gradient_3" gradientUnits="userSpaceOnUse" x1="13.9375" y1="-2.4" x2="122.36250000000001" y2="-2.4" spreadMethod="pad">
<stop  offset="24.313725490196077%" stop-color="#000000"/>

<stop  offset="100%" stop-color="#000000" stop-opacity="0"/>
</linearGradient>

<linearGradient id="Gradient_4" gradientUnits="userSpaceOnUse" x1="4.3" y1="-6.912500000000001" x2="4.3" y2="-89.48750000000001" spreadMethod="pad">
<stop  offset="24.313725490196077%" stop-color="#000000"/>

<stop  offset="100%" stop-color="#000000" stop-opacity="0"/>
</linearGradient>

<filter id="Filter_1" x="-20%" y="-20%" width="140%" height="140%" color-interpolation-filters="sRGB">
<feColorMatrix in="SourceGraphic" type="matrix" values="0.75 0 0 0 0 0 0.75 0 0 0 0 0 0.75 0 0 0 0 0 1 0" result="result1"/>
</filter>

<g id="Scene_1_gfx_Symbol_396_gfx_Symbol_1_0_Layer0_0_FILL">
<path fill="#000000" stroke="none" d="
M 380 240
L 380 -240 -380 -240 -380 240 380 240 Z"/>
</g>

<g id="Scene_1_gfx_Symbol_396_gfx_gfx_Symbol_23_gfx_Symbol_2_0_Layer0_0_FILL">
<path fill="#283859" stroke="none" d="
M -339.65 -230.95
L -340.05 -231.15 -742.65 -525.85 -742.65 597.05 -332.4 263.75
Q -305.4 244.1 -283.3 226.35
L -269.85 215.35 -269.85 -184.1
Q -297.4 -201.95 -311.35 -213.5 -324.6 -224.5 -339.65 -230.95
M -393.9 288.3
L -395.6 288.15 -393.9 288.25 -393.9 288.3
M 315.65 -219.65
Q 304.45 -211.15 299.55 -206.45
L 288.4 -195.6
Q 282.15 -189.5 277.65 -184.1
L 277.65 215.35
Q 300.1 233.25 307.95 239.2
L 314.15 244.5
Q 322.45 251.4 331.5 256.55
L 745.4 597.05 745.4 -525.85 374.05 -254.25
Q 369.45 -252.75 364.9 -250.45 338.75 -237.25 315.65 -219.65
M 396.65 -257.35
L 398.35 -257.2 396.65 -257.3 396.65 -257.35 Z"/>

<path fill="#10284A" stroke="none" d="
M 314.15 244.5
L 307.95 239.2
Q 300.1 233.25 277.65 215.35
L -269.85 215.35 -283.3 226.35
Q -305.4 244.1 -332.4 263.75
L -742.65 597.05 745.4 597.05 331.5 256.55
Q 322.45 251.4 314.15 244.5 Z"/>

<path fill="#082042" stroke="none" d="
M 299.55 -206.45
Q 304.45 -211.15 315.65 -219.65 338.75 -237.25 364.9 -250.45 369.45 -252.75 374.05 -254.25
L 745.4 -525.85 -742.65 -525.85 -340.05 -231.15 -339.65 -230.95
Q -324.6 -224.5 -311.35 -213.5 -297.4 -201.95 -269.85 -184.1
L 277.65 -184.1
Q 282.15 -189.5 288.4 -195.6
L 299.55 -206.45 Z"/>
</g>

<g id="Scene_1_gfx_Symbol_396_gfx_gfx_Symbol_3_0_Layer0_0_FILL">
<path fill="#1E2A43" stroke="none" d="
M -42.3 -34.6
Q -51.4 -42.45 -63.75 -46.5
L -64.65 -46.4
Q -62.5 -43.75 -62.75 -39.5 -55.35 -29.95 -48.6 -19.95 -41.7 -9.65 -32.35 -15.7
L -32 -15.95 -28.75 -12.75 -26.9 -11.8 -23 -9.25
Q -22.5 -9.4 -22.1 -9.65
L -21.5 -10.25
Q -20.75 -11.25 -21.75 -12.5
L -21.25 -12.95
Q -18.7 -7.3 -17.75 -1 -18.6 0.8 -18.8 2.7 -19.1 5.75 -17.5 8 -12.15 8.5 -8 6
L -7.5 6.5 -7.5 7.75
Q -6 9.25 -5.15 11.05 -3.3 14.85 -1.25 18.25
L 0.6 19.85 1.05 21.1
Q 2.1 23.1 3.5 25 16.7 31.6 31 31.25
L 32.5 30
Q 34.5 28.45 35.5 26.25
L 35.35 25.55
Q 29.9 14.95 20.4 7.15 13.35 -3.8 1.35 -8.95 -1.9 -14 -7.75 -16
L -8.15 -16.65
Q -22.35 -30.5 -42.3 -34.6
M -13.1 1.25
L -12.85 1.85 -13.25 2 -13.1 1.25 Z"/>
</g>

<g id="Scene_1_gfx_gfx_Symbol_4_0_Layer0_0_FILL">
<path fill="#324772" stroke="none" d="
M 21.6 -31.25
Q 15 -28.55 10.2 -23.25
L 4 -16.75
Q -24.9 11.75 -57.9 35.3 -95.45 82.55 -51.65 55.75 -7.85 28.9 1.55 23.8 35.65 5.1 57.85 -26.7 57.45 -30.5 54.65 -33.2 50.75 -37 45.45 -36.05 43.85 -35.65 42.85 -34.55 39.5 -30.9 34.85 -29.7
L 33.4 -30.65
Q 27.65 -33.65 21.6 -31.25 Z"/>
</g>

<g id="Scene_1_gfx_gfx_Symbol_6_gfx_Symbol_5_0_Layer0_0_FILL">
<path fill="#6A3E00" stroke="none" d="
M 15.7 21.6
L 19.75 2.45 9.3 2.4 5.25 21.6 15.7 21.6
M 88.95 21.6
L 85.65 2.7 73.75 2.65 74.95 21.6 88.95 21.6 Z"/>

<path fill="#875000" stroke="none" d="
M 9.3 2.4
L 4.9 2.35 0 21.6 5.25 21.6 9.3 2.4
M 71.35 2.65
L 71.35 2.6 19.75 2.4 19.75 2.45 15.7 21.6 74.95 21.6 73.75 2.65 71.35 2.65
M 85.65 2.65
L 85.65 2.7 88.95 21.6 102.2 21.6 98.35 5.55 98.3 5.35 97.65 2.7 97.65 2.65 85.65 2.65 Z"/>

<path fill="#522900" stroke="none" d="
M 102.2 26.15
L 102.2 21.6 88.95 21.6 74.95 21.6 15.7 21.6 5.25 21.6 0 21.6 0 26.15 102.2 26.15 Z"/>

<path fill="#AA762B" stroke="none" d="
M 85.65 2.7
L 85.65 2.65 97.65 2.65 97 0 5.5 0 4.9 2.35 9.3 2.4 19.75 2.45 19.75 2.4 71.35 2.6 71.35 2.65 73.75 2.65 85.65 2.7 Z"/>
</g>

<g id="Scene_1_gfx_gfx_Symbol_25_gfx_Symbol_24_0_Layer0_0_FILL">
<path fill="#666666" stroke="none" d="
M 116.8 326.8
L 122.4 326.8 79.65 82.7 116.8 326.8
M 101.3 326.8
L 105.8 326.8 75.55 82.05 101.3 326.8
M 0 326.8
L 5.75 326.8 47.65 81.6 0 326.8
M 15.75 326.8
L 20.05 326.8 43 142.85 15.75 326.8 Z"/>

<path fill="#8A8A8A" stroke="none" d="
M 109.55 326.8
L 113.3 326.8 88.9 164 109.55 326.8
M 62.5 0
L 55.4 40.85 8.25 326.8 12 326.8 62.5 0 Z"/>

<path fill="#7B7B7B" stroke="none" d="
M 66.3 1
L 66.2 0.55 75.55 82.05 105.8 326.8 109.55 326.8 88.9 164 113.3 326.8 116.8 326.8 79.65 82.7 66.35 1.45 66.3 1
M 43 142.85
L 62.5 0 12 326.8 15.75 326.8 43 142.85
M 55.4 40.85
L 47.65 81.6 5.75 326.8 8.25 326.8 55.4 40.85 Z"/>
</g>

<g id="Scene_1_gfx_Symbol_396_gfx_gfx_Symbol_27_gfx_Symbol_26_0_Layer0_0_FILL">
<path fill="url(#Gradient_1)" stroke="none" d="
M -126.45 -95.95
L -126.45 91.3 4.3 -2.35 -126.45 -95.95 Z"/>

<path fill="url(#Gradient_2)" stroke="none" d="
M 135 91.3
L 4.3 -2.35 -126.45 91.3 135 91.3 Z"/>

<path fill="url(#Gradient_3)" stroke="none" d="
M 135 -95.95
L 4.3 -2.35 135 91.3 135 -95.95 Z"/>

<path fill="url(#Gradient_4)" stroke="none" d="
M 4.3 -2.35
L 135 -95.95 -126.45 -95.95 4.3 -2.35 Z"/>
</g>

<path id="Scene_1_gfx_gfx_Symbol_6_gfx_Symbol_5_0_Layer0_0_1_STROKES" stroke="#000000" stroke-width="1" stroke-linejoin="round" stroke-linecap="round" fill="none" d="
M 97.65 2.65
L 97 0 5.5 0 4.9 2.35
M 102.2 21.6
L 98.35 5.55
M 98.3 5.35
L 97.65 2.7 97.65 2.65
M 102.2 21.6
L 102.2 26.15 0 26.15 0 21.6 4.9 2.35"/>

<path id="Scene_1_gfx_gfx_Symbol_25_gfx_Symbol_24_0_Layer0_0_1_STROKES" stroke="#000000" stroke-width="0.75" stroke-linejoin="round" stroke-linecap="round" fill="none" d="
M 62.5 0
L 55.4 40.85
M 8.25 326.8
L 12 326.8
M 62.5 0
L 43 142.85 20.05 326.8 15.75 326.8 12 326.8
M 75.55 82.05
L 66.2 0.55 66.3 1
M 66.35 1.45
L 79.65 82.7 122.4 326.8 116.8 326.8 113.3 326.8 109.55 326.8 105.8 326.8 101.3 326.8 75.55 82.05
M 55.4 40.85
L 47.65 81.6
M 8.25 326.8
L 5.75 326.8 0 326.8 47.65 81.6"/>
</defs>

<g id="game_mc" transform="matrix( 1, 0, 0, 1, 378.9,239.7) ">
<g transform="matrix( 1, 0, 0, 1, 0,0) ">
<g transform="matrix( 1, 0, 0, 1, 0,0) ">
<use xlink:href="#Scene_1_gfx_Symbol_396_gfx_Symbol_1_0_Layer0_0_FILL"/>
</g>
</g>

<g transform="matrix( 0.999969482421875, 0, 0, 1, 0,0.3) ">
<g id="seg1" transform="matrix( 0.076202392578125, 0, 0, 0.076202392578125, 1.25,-39.15) ">
<g transform="matrix( 1, 0, 0, 1, 0,0) ">
<g transform="matrix( 1, 0, 0, 1, 0,0) ">
<use xlink:href="#Scene_1_gfx_Symbol_396_gfx_gfx_Symbol_23_gfx_Symbol_2_0_Layer0_0_FILL"/>
</g>
</g>

<g transform="matrix( 1, 0, 0, 1, -225.45,-150.95) ">
<g transform="matrix( 1, 0, 0, 1, 0,0) ">
<use xlink:href="#Scene_1_gfx_Symbol_396_gfx_gfx_Symbol_3_0_Layer0_0_FILL"/>
</g>
</g>

<g transform="matrix( 1, 0, 0, 1, -246,186.1) ">
<g transform="matrix( 1, 0, 0, 1, 0,0) ">
<use xlink:href="#Scene_1_gfx_gfx_Symbol_4_0_Layer0_0_FILL"/>
</g>
</g>

<g transform="matrix( -1, 0, 0, 1, 218.35,-149.3) ">
<g transform="matrix( 1, 0, 0, 1, 0,0) ">
<use xlink:href="#Scene_1_gfx_Symbol_396_gfx_gfx_Symbol_3_0_Layer0_0_FILL"/>
</g>
</g>

<g transform="matrix( -1, 0, 0, 1, 240.7,181.75) ">
<g transform="matrix( 1, 0, 0, 1, 0,0) ">
<use xlink:href="#Scene_1_gfx_gfx_Symbol_4_0_Layer0_0_FILL"/>
</g>
</g>

<g transform="matrix( 1, 0, 0, 1, -52.15,210.75) ">
<g transform="matrix( 1, 0, 0, 1, 0,0) ">
<g transform="matrix( 1, 0, 0, 1, 0,0) ">
<use filter="url(#Filter_1)" xlink:href="#Scene_1_gfx_gfx_Symbol_6_gfx_Symbol_5_0_Layer0_0_FILL"/>

<use filter="url(#Filter_1)" xlink:href="#Scene_1_gfx_gfx_Symbol_6_gfx_Symbol_5_0_Layer0_0_1_STROKES"/>
</g>
</g>
</g>
</g>

<g id="seg2" transform="matrix( 0.0838470458984375, 0, 0, 0.0838470458984375, 1.25,-39.15) ">
<g transform="matrix( 1, 0, 0, 1, 0,0) ">
<g transform="matrix( 1, 0, 0, 1, 0,0) ">
<use xlink:href="#Scene_1_gfx_Symbol_396_gfx_gfx_Symbol_23_gfx_Symbol_2_0_Layer0_0_FILL"/>
</g>
</g>

<g transform="matrix( 1, 0, 0, 1, -225.45,-150.95) ">
<g transform="matrix( 1, 0, 0, 1, 0,0) ">
<use xlink:href="#Scene_1_gfx_Symbol_396_gfx_gfx_Symbol_3_0_Layer0_0_FILL"/>
</g>
</g>

<g transform="matrix( 1, 0, 0, 1, -246,186.1) ">
<g transform="matrix( 1, 0, 0, 1, 0,0) ">
<use xlink:href="#Scene_1_gfx_gfx_Symbol_4_0_Layer0_0_FILL"/>
</g>
</g>

<g transform="matrix( -1, 0, 0, 1, 218.35,-149.3) ">
<g transform="matrix( 1, 0, 0, 1, 0,0) ">
<use xlink:href="#Scene_1_gfx_Symbol_396_gfx_gfx_Symbol_3_0_Layer0_0_FILL"/>
</g>
</g>

<g transform="matrix( -1, 0, 0, 1, 240.7,181.75) ">
<g transform="matrix( 1, 0, 0, 1, 0,0) ">
<use xlink:href="#Scene_1_gfx_gfx_Symbol_4_0_Layer0_0_FILL"/>
</g>
</g>

<g transform="matrix( 1, 0, 0, 1, -52.15,210.75) ">
<g transform="matrix( 1, 0, 0, 1, 0,0) ">
<g transform="matrix( 1, 0, 0, 1, 0,0) ">
<use filter="url(#Filter_1)" xlink:href="#Scene_1_gfx_gfx_Symbol_6_gfx_Symbol_5_0_Layer0_0_FILL"/>

<use filter="url(#Filter_1)" xlink:href="#Scene_1_gfx_gfx_Symbol_6_gfx_Symbol_5_0_Layer0_0_1_STROKES"/>
</g>
</g>
</g>
</g>

<g id="seg3" transform="matrix( 0.10675048828125, 0, 0, 0.10675048828125, 1.25,-39.15) ">
<g transform="matrix( 1, 0, 0, 1, 0,0) ">
<g transform="matrix( 1, 0, 0, 1, 0,0) ">
<use xlink:href="#Scene_1_gfx_Symbol_396_gfx_gfx_Symbol_23_gfx_Symbol_2_0_Layer0_0_FILL"/>
</g>
</g>

<g transform="matrix( 1, 0, 0, 1, -225.45,-150.95) ">
<g transform="matrix( 1, 0, 0, 1, 0,0) ">
<use xlink:href="#Scene_1_gfx_Symbol_396_gfx_gfx_Symbol_3_0_Layer0_0_FILL"/>
</g>
</g>

<g transform="matrix( 1, 0, 0, 1, -246,186.1) ">
<g transform="matrix( 1, 0, 0, 1, 0,0) ">
<use xlink:href="#Scene_1_gfx_gfx_Symbol_4_0_Layer0_0_FILL"/>
</g>
</g>

<g transform="matrix( -1, 0, 0, 1, 218.35,-149.3) ">
<g transform="matrix( 1, 0, 0, 1, 0,0) ">
<use xlink:href="#Scene_1_gfx_Symbol_396_gfx_gfx_Symbol_3_0_Layer0_0_FILL"/>
</g>
</g>

<g transform="matrix( -1, 0, 0, 1, 240.7,181.75) ">
<g transform="matrix( 1, 0, 0, 1, 0,0) ">
<use xlink:href="#Scene_1_gfx_gfx_Symbol_4_0_Layer0_0_FILL"/>
</g>
</g>

<g transform="matrix( 1, 0, 0, 1, -52.15,210.75) ">
<g transform="matrix( 1, 0, 0, 1, 0,0) ">
<g transform="matrix( 1, 0, 0, 1, 0,0) ">
<use filter="url(#Filter_1)" xlink:href="#Scene_1_gfx_gfx_Symbol_6_gfx_Symbol_5_0_Layer0_0_FILL"/>

<use filter="url(#Filter_1)" xlink:href="#Scene_1_gfx_gfx_Symbol_6_gfx_Symbol_5_0_Layer0_0_1_STROKES"/>
</g>
</g>
</g>
</g>

<g id="seg4" transform="matrix( 0.1349945068359375, 0, 0, 0.1349945068359375, 1.25,-39.15) ">
<g transform="matrix( 1, 0, 0, 1, 0,0) ">
<g transform="matrix( 1, 0, 0, 1, 0,0) ">
<use xlink:href="#Scene_1_gfx_Symbol_396_gfx_gfx_Symbol_23_gfx_Symbol_2_0_Layer0_0_FILL"/>
</g>
</g>

<g transform="matrix( 1, 0, 0, 1, -225.45,-150.95) ">
<g transform="matrix( 1, 0, 0, 1, 0,0) ">
<use xlink:href="#Scene_1_gfx_Symbol_396_gfx_gfx_Symbol_3_0_Layer0_0_FILL"/>
</g>
</g>

<g transform="matrix( 1, 0, 0, 1, -246,186.1) ">
<g transform="matrix( 1, 0, 0, 1, 0,0) ">
<use xlink:href="#Scene_1_gfx_gfx_Symbol_4_0_Layer0_0_FILL"/>
</g>
</g>

<g transform="matrix( -1, 0, 0, 1, 218.35,-149.3) ">
<g transform="matrix( 1, 0, 0, 1, 0,0) ">
<use xlink:href="#Scene_1_gfx_Symbol_396_gfx_gfx_Symbol_3_0_Layer0_0_FILL"/>
</g>
</g>

<g transform="matrix( -1, 0, 0, 1, 240.7,181.75) ">
<g transform="matrix( 1, 0, 0, 1, 0,0) ">
<use xlink:href="#Scene_1_gfx_gfx_Symbol_4_0_Layer0_0_FILL"/>
</g>
</g>

<g transform="matrix( 1, 0, 0, 1, -52.15,210.75) ">
<g transform="matrix( 1, 0, 0, 1, 0,0) ">
<g transform="matrix( 1, 0, 0, 1, 0,0) ">
<use filter="url(#Filter_1)" xlink:href="#Scene_1_gfx_gfx_Symbol_6_gfx_Symbol_5_0_Layer0_0_FILL"/>

<use filter="url(#Filter_1)" xlink:href="#Scene_1_gfx_gfx_Symbol_6_gfx_Symbol_5_0_Layer0_0_1_STROKES"/>
</g>
</g>
</g>
</g>

<g id="seg5" transform="matrix( 0.16998291015625, 0, 0, 0.16998291015625, 1.25,-39.15) ">
<g transform="matrix( 1, 0, 0, 1, 0,0) ">
<g transform="matrix( 1, 0, 0, 1, 0,0) ">
<use xlink:href="#Scene_1_gfx_Symbol_396_gfx_gfx_Symbol_23_gfx_Symbol_2_0_Layer0_0_FILL"/>
</g>
</g>

<g transform="matrix( 1, 0, 0, 1, -225.45,-150.95) ">
<g transform="matrix( 1, 0, 0, 1, 0,0) ">
<use xlink:href="#Scene_1_gfx_Symbol_396_gfx_gfx_Symbol_3_0_Layer0_0_FILL"/>
</g>
</g>

<g transform="matrix( 1, 0, 0, 1, -246,186.1) ">
<g transform="matrix( 1, 0, 0, 1, 0,0) ">
<use xlink:href="#Scene_1_gfx_gfx_Symbol_4_0_Layer0_0_FILL"/>
</g>
</g>

<g transform="matrix( -1, 0, 0, 1, 218.35,-149.3) ">
<g transform="matrix( 1, 0, 0, 1, 0,0) ">
<use xlink:href="#Scene_1_gfx_Symbol_396_gfx_gfx_Symbol_3_0_Layer0_0_FILL"/>
</g>
</g>

<g transform="matrix( -1, 0, 0, 1, 240.7,181.75) ">
<g transform="matrix( 1, 0, 0, 1, 0,0) ">
<use xlink:href="#Scene_1_gfx_gfx_Symbol_4_0_Layer0_0_FILL"/>
</g>
</g>

<g transform="matrix( 1, 0, 0, 1, -52.15,210.75) ">
<g transform="matrix( 1, 0, 0, 1, 0,0) ">
<g transform="matrix( 1, 0, 0, 1, 0,0) ">
<use filter="url(#Filter_1)" xlink:href="#Scene_1_gfx_gfx_Symbol_6_gfx_Symbol_5_0_Layer0_0_FILL"/>

<use filter="url(#Filter_1)" xlink:href="#Scene_1_gfx_gfx_Symbol_6_gfx_Symbol_5_0_Layer0_0_1_STROKES"/>
</g>
</g>
</g>
</g>

<g id="seg6" transform="matrix( 0.219970703125, 0, 0, 0.219970703125, 1.25,-39.15) ">
<g transform="matrix( 1, 0, 0, 1, 0,0) ">
<g transform="matrix( 1, 0, 0, 1, 0,0) ">
<use xlink:href="#Scene_1_gfx_Symbol_396_gfx_gfx_Symbol_23_gfx_Symbol_2_0_Layer0_0_FILL"/>
</g>
</g>

<g transform="matrix( 1, 0, 0, 1, -225.45,-150.95) ">
<g transform="matrix( 1, 0, 0, 1, 0,0) ">
<use xlink:href="#Scene_1_gfx_Symbol_396_gfx_gfx_Symbol_3_0_Layer0_0_FILL"/>
</g>
</g>

<g transform="matrix( 1, 0, 0, 1, -246,186.1) ">
<g transform="matrix( 1, 0, 0, 1, 0,0) ">
<use xlink:href="#Scene_1_gfx_gfx_Symbol_4_0_Layer0_0_FILL"/>
</g>
</g>

<g transform="matrix( -1, 0, 0, 1, 218.35,-149.3) ">
<g transform="matrix( 1, 0, 0, 1, 0,0) ">
<use xlink:href="#Scene_1_gfx_Symbol_396_gfx_gfx_Symbol_3_0_Layer0_0_FILL"/>
</g>
</g>

<g transform="matrix( -1, 0, 0, 1, 240.7,181.75) ">
<g transform="matrix( 1, 0, 0, 1, 0,0) ">
<use xlink:href="#Scene_1_gfx_gfx_Symbol_4_0_Layer0_0_FILL"/>
</g>
</g>

<g transform="matrix( 1, 0, 0, 1, -52.15,210.75) ">
<g transform="matrix( 1, 0, 0, 1, 0,0) ">
<g transform="matrix( 1, 0, 0, 1, 0,0) ">
<use filter="url(#Filter_1)" xlink:href="#Scene_1_gfx_gfx_Symbol_6_gfx_Symbol_5_0_Layer0_0_FILL"/>

<use filter="url(#Filter_1)" xlink:href="#Scene_1_gfx_gfx_Symbol_6_gfx_Symbol_5_0_Layer0_0_1_STROKES"/>
</g>
</g>
</g>
</g>

<g id="seg7" transform="matrix( 0.28997802734375, 0, 0, 0.28997802734375, 1.25,-39.15) ">
<g transform="matrix( 1, 0, 0, 1, 0,0) ">
<g transform="matrix( 1, 0, 0, 1, 0,0) ">
<use xlink:href="#Scene_1_gfx_Symbol_396_gfx_gfx_Symbol_23_gfx_Symbol_2_0_Layer0_0_FILL"/>
</g>
</g>

<g transform="matrix( 1, 0, 0, 1, -225.45,-150.95) ">
<g transform="matrix( 1, 0, 0, 1, 0,0) ">
<use xlink:href="#Scene_1_gfx_Symbol_396_gfx_gfx_Symbol_3_0_Layer0_0_FILL"/>
</g>
</g>

<g transform="matrix( 1, 0, 0, 1, -246,186.1) ">
<g transform="matrix( 1, 0, 0, 1, 0,0) ">
<use xlink:href="#Scene_1_gfx_gfx_Symbol_4_0_Layer0_0_FILL"/>
</g>
</g>

<g transform="matrix( -1, 0, 0, 1, 218.35,-149.3) ">
<g transform="matrix( 1, 0, 0, 1, 0,0) ">
<use xlink:href="#Scene_1_gfx_Symbol_396_gfx_gfx_Symbol_3_0_Layer0_0_FILL"/>
</g>
</g>

<g transform="matrix( -1, 0, 0, 1, 240.7,181.75) ">
<g transform="matrix( 1, 0, 0, 1, 0,0) ">
<use xlink:href="#Scene_1_gfx_gfx_Symbol_4_0_Layer0_0_FILL"/>
</g>
</g>

<g transform="matrix( 1, 0, 0, 1, -52.15,210.75) ">
<g transform="matrix( 1, 0, 0, 1, 0,0) ">
<g transform="matrix( 1, 0, 0, 1, 0,0) ">
<use filter="url(#Filter_1)" xlink:href="#Scene_1_gfx_gfx_Symbol_6_gfx_Symbol_5_0_Layer0_0_FILL"/>

<use filter="url(#Filter_1)" xlink:href="#Scene_1_gfx_gfx_Symbol_6_gfx_Symbol_5_0_Layer0_0_1_STROKES"/>
</g>
</g>
</g>
</g>

<g id="seg8" transform="matrix( 0.3899993896484375, 0, 0, 0.3899993896484375, 1.25,-39.15) ">
<g transform="matrix( 1, 0, 0, 1, 0,0) ">
<g transform="matrix( 1, 0, 0, 1, 0,0) ">
<use xlink:href="#Scene_1_gfx_Symbol_396_gfx_gfx_Symbol_23_gfx_Symbol_2_0_Layer0_0_FILL"/>
</g>
</g>

<g transform="matrix( 1, 0, 0, 1, -225.45,-150.95) ">
<g transform="matrix( 1, 0, 0, 1, 0,0) ">
<use xlink:href="#Scene_1_gfx_Symbol_396_gfx_gfx_Symbol_3_0_Layer0_0_FILL"/>
</g>
</g>

<g transform="matrix( 1, 0, 0, 1, -246,186.1) ">
<g transform="matrix( 1, 0, 0, 1, 0,0) ">
<use xlink:href="#Scene_1_gfx_gfx_Symbol_4_0_Layer0_0_FILL"/>
</g>
</g>

<g transform="matrix( -1, 0, 0, 1, 218.35,-149.3) ">
<g transform="matrix( 1, 0, 0, 1, 0,0) ">
<use xlink:href="#Scene_1_gfx_Symbol_396_gfx_gfx_Symbol_3_0_Layer0_0_FILL"/>
</g>
</g>

<g transform="matrix( -1, 0, 0, 1, 240.7,181.75) ">
<g transform="matrix( 1, 0, 0, 1, 0,0) ">
<use xlink:href="#Scene_1_gfx_gfx_Symbol_4_0_Layer0_0_FILL"/>
</g>
</g>

<g transform="matrix( 1, 0, 0, 1, -52.15,210.75) ">
<g transform="matrix( 1, 0, 0, 1, 0,0) ">
<g transform="matrix( 1, 0, 0, 1, 0,0) ">
<use filter="url(#Filter_1)" xlink:href="#Scene_1_gfx_gfx_Symbol_6_gfx_Symbol_5_0_Layer0_0_FILL"/>

<use filter="url(#Filter_1)" xlink:href="#Scene_1_gfx_gfx_Symbol_6_gfx_Symbol_5_0_Layer0_0_1_STROKES"/>
</g>
</g>
</g>
</g>

<g id="seg9" transform="matrix( 0.519989013671875, 0, 0, 0.519989013671875, 1.25,-39.15) ">
<g transform="matrix( 1, 0, 0, 1, 0,0) ">
<g transform="matrix( 1, 0, 0, 1, 0,0) ">
<use xlink:href="#Scene_1_gfx_Symbol_396_gfx_gfx_Symbol_23_gfx_Symbol_2_0_Layer0_0_FILL"/>
</g>
</g>

<g transform="matrix( 1, 0, 0, 1, -225.45,-150.95) ">
<g transform="matrix( 1, 0, 0, 1, 0,0) ">
<use xlink:href="#Scene_1_gfx_Symbol_396_gfx_gfx_Symbol_3_0_Layer0_0_FILL"/>
</g>
</g>

<g transform="matrix( 1, 0, 0, 1, -246,186.1) ">
<g transform="matrix( 1, 0, 0, 1, 0,0) ">
<use xlink:href="#Scene_1_gfx_gfx_Symbol_4_0_Layer0_0_FILL"/>
</g>
</g>

<g transform="matrix( -1, 0, 0, 1, 218.35,-149.3) ">
<g transform="matrix( 1, 0, 0, 1, 0,0) ">
<use xlink:href="#Scene_1_gfx_Symbol_396_gfx_gfx_Symbol_3_0_Layer0_0_FILL"/>
</g>
</g>

<g transform="matrix( -1, 0, 0, 1, 240.7,181.75) ">
<g transform="matrix( 1, 0, 0, 1, 0,0) ">
<use xlink:href="#Scene_1_gfx_gfx_Symbol_4_0_Layer0_0_FILL"/>
</g>
</g>

<g transform="matrix( 1, 0, 0, 1, -52.15,210.75) ">
<g transform="matrix( 1, 0, 0, 1, 0,0) ">
<g transform="matrix( 1, 0, 0, 1, 0,0) ">
<use filter="url(#Filter_1)" xlink:href="#Scene_1_gfx_gfx_Symbol_6_gfx_Symbol_5_0_Layer0_0_FILL"/>

<use filter="url(#Filter_1)" xlink:href="#Scene_1_gfx_gfx_Symbol_6_gfx_Symbol_5_0_Layer0_0_1_STROKES"/>
</g>
</g>
</g>
</g>

<g id="seg12" transform="matrix( 1.0999755859375, 0, 0, 1.0999755859375, -0.35,-39.15) ">
<g transform="matrix( 1, 0, 0, 1, 0,0) ">
<g transform="matrix( 1, 0, 0, 1, 0,0) ">
<use xlink:href="#Scene_1_gfx_Symbol_396_gfx_gfx_Symbol_23_gfx_Symbol_2_0_Layer0_0_FILL"/>
</g>
</g>

<g transform="matrix( 1, 0, 0, 1, -225.45,-150.95) ">
<g transform="matrix( 1, 0, 0, 1, 0,0) ">
<use xlink:href="#Scene_1_gfx_Symbol_396_gfx_gfx_Symbol_3_0_Layer0_0_FILL"/>
</g>
</g>

<g transform="matrix( 1, 0, 0, 1, -246,186.1) ">
<g transform="matrix( 1, 0, 0, 1, 0,0) ">
<use xlink:href="#Scene_1_gfx_gfx_Symbol_4_0_Layer0_0_FILL"/>
</g>
</g>

<g transform="matrix( -1, 0, 0, 1, 218.35,-149.3) ">
<g transform="matrix( 1, 0, 0, 1, 0,0) ">
<use xlink:href="#Scene_1_gfx_Symbol_396_gfx_gfx_Symbol_3_0_Layer0_0_FILL"/>
</g>
</g>

<g transform="matrix( -1, 0, 0, 1, 240.7,181.75) ">
<g transform="matrix( 1, 0, 0, 1, 0,0) ">
<use xlink:href="#Scene_1_gfx_gfx_Symbol_4_0_Layer0_0_FILL"/>
</g>
</g>

<g transform="matrix( 1, 0, 0, 1, -52.15,210.75) ">
<g transform="matrix( 1, 0, 0, 1, 0,0) ">
<g transform="matrix( 1, 0, 0, 1, 0,0) ">
<use filter="url(#Filter_1)" xlink:href="#Scene_1_gfx_gfx_Symbol_6_gfx_Symbol_5_0_Layer0_0_FILL"/>

<use filter="url(#Filter_1)" xlink:href="#Scene_1_gfx_gfx_Symbol_6_gfx_Symbol_5_0_Layer0_0_1_STROKES"/>
</g>
</g>
</g>
</g>

<g transform="matrix( 1, 0, 0, 1, -63.7,-27.5) ">
<g transform="matrix( 1, 0, 0, 1, 0,0) ">
<g transform="matrix( 1, 0, 0, 1, 0,0) ">
<use filter="url(#Filter_1)" xlink:href="#Scene_1_gfx_gfx_Symbol_25_gfx_Symbol_24_0_Layer0_0_FILL"/>

<use filter="url(#Filter_1)" xlink:href="#Scene_1_gfx_gfx_Symbol_25_gfx_Symbol_24_0_Layer0_0_1_STROKES"/>
</g>
</g>
</g>

<g id="mineShadow" transform="matrix( 1, 0, 0, 1, -3.35,-35.9) ">
<g transform="matrix( 1, 0, 0, 1, 0,0) ">
<g transform="matrix( 1, 0, 0, 1, 0,0) ">
<use xlink:href="#Scene_1_gfx_Symbol_396_gfx_gfx_Symbol_27_gfx_Symbol_26_0_Layer0_0_FILL"/>
</g>
</g>
</g>
</g>
</g>

<g id="point_mc" transform="matrix( 1, 0, 0, 1, 373.45,130.7) "/>

<g id="messages_mc" transform="matrix( 1, 0, 0, 1, 380,240) "/>
</svg>
