
<svg xmlns="http://www.w3.org/2000/svg" version="1.1" xmlns:xlink="http://www.w3.org/1999/xlink" preserveAspectRatio="none" x="0px" y="0px" width="760px" height="480px" viewBox="0 0 760 480">
<defs>
<linearGradient id="Gradient_1" gradientUnits="userSpaceOnUse" x1="-39.4625" y1="-22.212500000000002" x2="83.6625" y2="-32.987500000000004" spreadMethod="pad">
<stop  offset="34.11764705882353%" stop-color="#223333"/>

<stop  offset="100%" stop-color="#4A7171"/>
</linearGradient>

<g id="Sprites_Sprite_167_0_Layer0_0_FILL">
<path fill="#CCCCCC" stroke="none" d="
M 760 480
L 760 0 0 0 0 480 760 480 Z"/>
</g>

<g id="Sprites_Sprite_169_0_Layer0_0_FILL">
<path fill="#685048" stroke="none" d="
M -347.2 250
L -349.5 227.35 -367.2 250 -347.2 250
M -380.05 143
Q -384.3 136.55 -390 136.05
L -390 191.1 -380.85 170.75
Q -376 159.3 -376 155 -376 149.1 -380.05 143
M -360.25 60.95
L -356.85 94.7
Q -344.2 106.15 -337.5 121.7 -328.7 142.15 -334 163.9 -339.25 185.3 -351.95 203.4
L -349.5 227.35
Q -340 215.15 -332.6 201.6 -322.5 183.15 -320.15 162.1
L -326.15 102
Q -329.05 94.05 -333 87.05 -344.55 66.35 -360.25 60.95
M -387.05 83.15
L -390 83.55 -390 108.45 -384 108
Q -367.35 108 -361.05 124 -357 134.25 -357 153.5 -357 174.35 -369.95 200.1 -378.5 217.1 -390 231
L -390 250 -381.3 250
Q -371.5 231.9 -359.65 214.95 -355.65 209.3 -351.95 203.4
L -352.45 198
Q -352.55 196.5 -351.9 195.15 -350.2 191.6 -347.3 188.75
L -356.85 94.7
Q -369.7 82.55 -387.05 83.15
M -373.5 31
Q -380.25 31 -390 35.9
L -390 60.05 -372 59
Q -365.9 59 -360.25 60.95
L -363.25 31.7 -373.5 31
M -333.35 30.1
Q -338 26.95 -342.95 24.45 -353.8 18.95 -364.75 17.05
L -363.25 31.7
Q -344.9 34.15 -331.75 46
L -333.35 30.1
M -86.85 238.75
L -88.35 240.5 -49.8 236.55
Q -25.55 216.8 10.8 200.55
L -57.15 207.55
Q -65.05 214.4 -86.85 238.75
M -293.55 231.95
Q -298.3 241.1 -303.7 250
L -273.25 250
Q -267.45 239.55 -262.85 228.8
L -293.55 231.95
M -316.3 200.55
Q -319.7 206.95 -323.5 213.05
L -346.75 250 -325.05 250
Q -318.5 242.05 -313.05 233.35
L -316.3 200.55
M -173.55 249.15
L -174.75 250 -96.85 250 -88.35 240.5 -173.55 249.15
M -181.95 250
L -173.55 249.15 -151.75 232.95
Q -140.3 224 -131.4 215.25
L -237.35 226.15
Q -240.7 238.25 -245.2 250
L -181.95 250
M -268 -246
Q -268 -238.85 -271.3 -231.2
L -239.15 -234.8 -232.55 -250 -268.5 -250
Q -268 -247.95 -268 -246
M -249.65 -207.45
L -251.3 -203.85 -216.3 -206.1
Q -203.65 -220.95 -182.5 -233.6 -173.25 -239.1 -164.1 -243.05
L -239.15 -234.8
Q -243.85 -220.85 -249.65 -207.45
M -142.95 -250
Q -149.4 -248.75 -157.05 -245.9
L -164.1 -243.05 -99.15 -250 -142.95 -250
M -86.8 -250
Q -106.7 -244.15 -126.1 -233.5 -143.35 -224.1 -162.1 -209.6
L -104.1 -213.35
Q -88.5 -221.95 -72.15 -229.25 -52.25 -238.3 -30.95 -242.7 -10.45 -246.85 9.75 -250
L -86.8 -250
M -369.35 -28.45
L -366.95 -4.5
Q -356.05 -4.55 -345.05 -1.9 -340.55 -0.8 -336.25 0.7
L -338.5 -21.85
Q -352.9 -27.1 -369.35 -28.45
M -366.95 -4.5
Q -378.5 -4.5 -390 -1.4
L -390 19.9
Q -381.5 16 -376.5 16 -370.6 16 -364.75 17.05
L -366.95 -4.5
M -371.3 -47.3
L -390 -47.9 -390 -28.35 -380.3 -28.95 -369.35 -28.45 -371.3 -47.3
M -369.2 -73.2
L -373.85 -72.35 -371.3 -47.3
Q -355.3 -45.75 -340.35 -40.4
L -344.2 -78.9
Q -356.65 -75.55 -369.2 -73.2
M -390 -70.05
L -373.85 -72.35 -376.45 -97.75 -390 -94.25 -390 -70.05
M -349.4 -130.95
L -358.1 -127.7
Q -368.55 -123.85 -378.75 -120.6
L -376.45 -97.75
Q -360.55 -102 -346.95 -106.05
L -349.4 -130.95
M -381.95 -151.95
Q -385.95 -150.4 -390 -149
L -390 -117.15 -378.75 -120.6 -381.95 -151.95
M -390 -188.4
L -389.8 -188.45 -390 -190.4 -390 -188.4
M -352.75 -164.4
L -356 -197.05 -295.3 -201
Q -287.65 -207.75 -281.95 -214.55 -274.8 -223.15 -271.3 -231.2
L -321.6 -225.45 -322.75 -226.5
Q -335.4 -208.7 -368.8 -195.6 -379.15 -191.55 -389.8 -188.45 -388.35 -174.35 -386.35 -160.2 -386.2 -159.15 -385.5 -158.25 -384.2 -156.4 -382.25 -155.1
L -381.95 -151.95 -369.85 -156.75
Q -361.05 -160.45 -352.75 -164.4
M -354 -250
Q -354 -235.3 -368.8 -224
L -328.2 -228.7
Q -324.95 -228.9 -322.75 -226.5 -315 -237.35 -315 -250
L -354 -250
M -387.25 -221.8
Q -388.8 -221.65 -390 -220.75
L -390 -212.45 -387.15 -213.65
Q -376.15 -218.4 -368.8 -224
L -387.25 -221.8
M 276.2 244.5
L 275.45 244.7 274.05 243.4
Q 262.6 245.8 249.45 250
L 280.15 250 276.2 244.5
M 0.95 248.55
Q 13.8 238.4 31.2 228.35
L -49.8 236.55
Q -57.85 243.1 -64.55 250
L -0.85 250 0.95 248.55
M 160.6 215.15
Q 144.95 219 129.85 223.85 105 231.75 78.25 250
L 153.05 250
Q 168.85 240 183.85 234.85 214.15 224.55 262.1 220.15
L 260.3 217.7
Q 259.5 217.6 259.2 217.15 254.95 211.9 252.7 205.8
L 160.6 215.15
M 390 191.3
L 389.9 191.4
Q 375.6 200.75 358.05 206.65 339.15 213.05 314.7 215.95
L 277.85 218.85 262.1 220.15 264.45 224.7 263.9 225.7
Q 267.6 235.25 274.05 243.4 295.15 238.9 316.65 240.4 333.35 241.5 350.15 239.8 370.8 237.5 390 229.3
L 390 191.3
M 389.2 147.8
L 386.1 117.35
Q 375.1 125.65 362.65 132.85
L 365.95 163.95 120.75 189.25 114.8 191.1
Q 83.9 201.1 53.2 216.5 41.4 222.4 31.2 228.35
L 160.6 215.15
Q 177.3 211 194.55 208 224.85 202.65 249.85 201.85
L 252.25 201.75
Q 273.25 200.8 297.7 194 324.25 186.6 348.95 173.85 371.5 162.25 389.2 147.8
M 390 147.15
L 389.2 147.8 390 155.7 390 147.15
M 390 114.3
L 386.1 117.35 389.2 147.8 390 147.15 390 114.3
M 383 86.6
L 381.35 70.5
Q 376.85 73.05 372 75.4 364.65 79 357.25 81.8
L 359.1 99.1
Q 372.1 93.25 383 86.6
M 390 65.25
L 381.35 70.5 383 86.6 390 82.1 390 65.25
M 378.2 39.3
L 375.15 9.25
Q 370.45 15.6 365.85 23
L 353.1 42.95 355.85 68.5 378.2 39.3
M 386.55 29.45
L 390 25.95 390 -8.15
Q 382.55 -0.85 375.15 9.25
L 378.2 39.3
Q 383 33.25 386.55 29.45
M 371.7 -24.6
L 390 -26 390 -58.35 383 -47.1
Q 377.4 -38.4 371.2 -29.4
L 371.7 -24.6
M 368.1 -24.95
L 371.2 -29.4 368 -60.95
Q 357.5 -41.95 345.95 -24.7
L 348.7 1.5
Q 359 -12 368.1 -24.95
M 364.45 -115.1
L 362.65 -113.4 368 -60.95
Q 379.7 -82.15 390 -105.5
L 390 -142.35
Q 376.05 -126.15 364.45 -115.1
M 362.65 -113.4
L 359.65 -143.05
Q 355.4 -142 351.85 -142 343.75 -142 333.25 -144.05
L 338.7 -92.65
Q 352.15 -103.55 362.65 -113.4
M 341.75 -184.85
L 328.6 -187.9 330.6 -168.95
Q 337.4 -167 346.35 -167
L 357.2 -167.2 355.55 -183.1
Q 348.95 -183.5 341.75 -184.85
M 380.85 -152.7
L 390 -158.6 390 -172.45
Q 386.45 -171.15 382.35 -170.2 372.35 -167.8 357.2 -167.2
L 359.65 -143.05
Q 368.7 -145.4 380.85 -152.7
M 355.4 -250
L 360.5 -199.5
Q 360.8 -196.45 358.4 -194.35
L 354.75 -191.15 355.55 -183.1 360.35 -183.1
Q 375.6 -183.55 390 -188
L 390 -250 355.4 -250
M 53.45 -229.7
Q 40.35 -224.8 26.65 -221.8
L 116.85 -227.65
Q 120.4 -230.25 123.75 -233.15 131.9 -240.2 139.7 -250
L 90.8 -250
Q 73.65 -236.95 53.45 -229.7
M 220.25 -250
Q 216.45 -245.95 210.45 -241.15 204.95 -236.7 199.25 -233
L 243.05 -235.8
Q 250.4 -242.5 254.95 -250
L 220.25 -250 Z"/>

<path fill="#725A52" stroke="none" d="
M -351.95 203.4
Q -355.65 209.3 -359.65 214.95 -371.5 231.9 -381.3 250
L -367.2 250 -349.5 227.35 -351.95 203.4
M -390 136.05
Q -384.3 136.55 -380.05 143 -376 149.1 -376 155 -376 159.3 -380.85 170.75
L -390 191.1 -390 231
Q -378.5 217.1 -369.95 200.1 -357 174.35 -357 153.5 -357 134.25 -361.05 124 -367.35 108 -384 108
L -390 108.45 -390 136.05
M -390 83.55
L -387.05 83.15
Q -369.7 82.55 -356.85 94.7
L -360.25 60.95
Q -365.9 59 -372 59
L -390 60.05 -390 83.55
M -364.75 17.05
Q -370.6 16 -376.5 16 -381.5 16 -390 19.9
L -390 35.9
Q -380.25 31 -373.5 31
L -363.25 31.7 -364.75 17.05
M -64.55 250
Q -57.85 243.1 -49.8 236.55
L -88.35 240.5 -96.85 250 -64.55 250
M -173.55 249.15
L -181.95 250 -174.75 250 -173.55 249.15
M -322.75 -226.5
L -321.6 -225.45 -271.3 -231.2
Q -268 -238.85 -268 -246 -268 -247.95 -268.5 -250
L -315 -250
Q -315 -237.35 -322.75 -226.5
M -157.05 -245.9
Q -149.4 -248.75 -142.95 -250
L -232.55 -250 -239.15 -234.8 -164.1 -243.05 -157.05 -245.9
M -369.35 -28.45
L -380.3 -28.95 -390 -28.35 -390 -1.4
Q -378.5 -4.5 -366.95 -4.5
L -369.35 -28.45
M -373.85 -72.35
L -390 -70.05 -390 -47.9 -371.3 -47.3 -373.85 -72.35
M -378.75 -120.6
L -390 -117.15 -390 -94.25 -376.45 -97.75 -378.75 -120.6
M -389.8 -188.45
L -390 -188.4 -390 -149
Q -385.95 -150.4 -381.95 -151.95
L -382.25 -155.1
Q -384.2 -156.4 -385.5 -158.25 -386.2 -159.15 -386.35 -160.2 -388.35 -174.35 -389.8 -188.45
M -390 -220.75
Q -388.8 -221.65 -387.25 -221.8
L -368.8 -224
Q -354 -235.3 -354 -250
L -390 -250 -390 -220.75
M 274.05 243.4
Q 267.6 235.25 263.9 225.7
L 264.45 224.7 262.1 220.15
Q 214.15 224.55 183.85 234.85 168.85 240 153.05 250
L 249.45 250
Q 262.6 245.8 274.05 243.4
M 129.85 223.85
Q 144.95 219 160.6 215.15
L 31.2 228.35
Q 13.8 238.4 0.95 248.55
L -0.85 250 78.25 250
Q 105 231.75 129.85 223.85
M 371.2 -29.4
Q 377.4 -38.4 383 -47.1
L 390 -58.35 390 -105.5
Q 379.7 -82.15 368 -60.95
L 371.2 -29.4
M 382.35 -170.2
Q 386.45 -171.15 390 -172.45
L 390 -188
Q 375.6 -183.55 360.35 -183.1
L 355.55 -183.1 357.2 -167.2
Q 372.35 -167.8 382.35 -170.2
M 390 -158.6
L 380.85 -152.7
Q 368.7 -145.4 359.65 -143.05
L 362.65 -113.4 364.45 -115.1
Q 376.05 -126.15 390 -142.35
L 390 -158.6 Z"/>

<path fill="#5E463E" stroke="none" d="
M -347.3 188.75
Q -350.2 191.6 -351.9 195.15 -352.55 196.5 -352.45 198
L -351.95 203.4
Q -339.25 185.3 -334 163.9 -328.7 142.15 -337.5 121.7 -344.2 106.15 -356.85 94.7
L -347.3 188.75
M -331.75 46
Q -344.9 34.15 -363.25 31.7
L -360.25 60.95
Q -344.55 66.35 -333 87.05 -329.05 94.05 -326.15 102
L -331.75 46
M -88.35 240.5
L -86.85 238.75
Q -65.05 214.4 -57.15 207.55
L -131.4 215.25
Q -140.3 224 -151.75 232.95
L -173.55 249.15 -88.35 240.5
M -273.25 250
L -245.2 250
Q -240.7 238.25 -237.35 226.15
L -262.85 228.8
Q -267.45 239.55 -273.25 250
M -293.55 231.95
L -313 233.95 -313.05 233.35
Q -318.5 242.05 -325.05 250
L -303.7 250
Q -298.3 241.1 -293.55 231.95
M -323.5 213.05
Q -319.7 206.95 -316.3 200.55
L -320.15 162.1
Q -322.5 183.15 -332.6 201.6 -340 215.15 -349.5 227.35
L -347.2 250 -346.75 250 -323.5 213.05
M -271.3 -231.2
Q -274.8 -223.15 -281.95 -214.55 -287.65 -207.75 -295.3 -201
L -251.3 -203.85 -249.65 -207.45
Q -243.85 -220.85 -239.15 -234.8
L -271.3 -231.2
M -86.8 -250
L -99.15 -250 -164.1 -243.05
Q -173.25 -239.1 -182.5 -233.6 -203.65 -220.95 -216.3 -206.1
L -162.1 -209.6
Q -143.35 -224.1 -126.1 -233.5 -106.7 -244.15 -86.8 -250
M -345.05 -1.9
Q -356.05 -4.55 -366.95 -4.5
L -364.75 17.05
Q -353.8 18.95 -342.95 24.45 -338 26.95 -333.35 30.1
L -336.25 0.7
Q -340.55 -0.8 -345.05 -1.9
M -371.3 -47.3
L -369.35 -28.45
Q -352.9 -27.1 -338.5 -21.85
L -340.35 -40.4
Q -355.3 -45.75 -371.3 -47.3
M -376.45 -97.75
L -373.85 -72.35 -369.2 -73.2
Q -356.65 -75.55 -344.2 -78.9
L -346.95 -106.05
Q -360.55 -102 -376.45 -97.75
M -369.85 -156.75
L -381.95 -151.95 -378.75 -120.6
Q -368.55 -123.85 -358.1 -127.7
L -349.4 -130.95 -352.75 -164.4
Q -361.05 -160.45 -369.85 -156.75
M -387.15 -213.65
L -390 -212.45 -390 -190.4 -389.8 -188.45
Q -379.15 -191.55 -368.8 -195.6 -335.4 -208.7 -322.75 -226.5 -324.95 -228.9 -328.2 -228.7
L -368.8 -224
Q -376.15 -218.4 -387.15 -213.65
M 114.8 191.1
L 120.75 189.25 10.8 200.55
Q -25.55 216.8 -49.8 236.55
L 31.2 228.35
Q 41.4 222.4 53.2 216.5 83.9 201.1 114.8 191.1
M 390 229.3
Q 370.8 237.5 350.15 239.8 333.35 241.5 316.65 240.4 295.15 238.9 274.05 243.4
L 275.45 244.7 276.2 244.5 280.15 250 390 250 390 229.3
M 389.9 191.4
L 387.65 192.05 252.7 205.8
Q 254.95 211.9 259.2 217.15 259.5 217.6 260.3 217.7
L 262.1 220.15 277.85 218.85 314.7 215.95
Q 339.15 213.05 358.05 206.65 375.6 200.75 389.9 191.4
M 389.9 191.4
L 390 191.3 390 155.7 389.2 147.8
Q 371.5 162.25 348.95 173.85 324.25 186.6 297.7 194 273.25 200.8 252.25 201.75
L 249.85 201.85
Q 224.85 202.65 194.55 208 177.3 211 160.6 215.15
L 252.7 205.8 387.65 192.05 389.9 191.4
M 359.1 99.1
L 362.65 132.85
Q 375.1 125.65 386.1 117.35
L 383 86.6
Q 372.1 93.25 359.1 99.1
M 390 82.1
L 383 86.6 386.1 117.35 390 114.3 390 82.1
M 355.85 68.5
L 357.25 81.8
Q 364.65 79 372 75.4 376.85 73.05 381.35 70.5
L 378.2 39.3 355.85 68.5
M 390 25.95
L 386.55 29.45
Q 383 33.25 378.2 39.3
L 381.35 70.5 390 65.25 390 25.95
M 345.95 -24.7
Q 357.5 -41.95 368 -60.95
L 362.65 -113.4
Q 352.15 -103.55 338.7 -92.65
L 345.95 -24.7
M 390 -26
L 371.7 -24.6 375.15 9.25
Q 382.55 -0.85 390 -8.15
L 390 -26
M 371.2 -29.4
L 368.1 -24.95
Q 359 -12 348.7 1.5
L 353.1 42.95 365.85 23
Q 370.45 15.6 375.15 9.25
L 371.7 -24.6 371.2 -29.4
M 357.2 -167.2
L 346.35 -167
Q 337.4 -167 330.6 -168.95
L 333.25 -144.05
Q 343.75 -142 351.85 -142 355.4 -142 359.65 -143.05
L 357.2 -167.2
M 26.65 -221.8
Q 40.35 -224.8 53.45 -229.7 73.65 -236.95 90.8 -250
L 9.75 -250
Q -10.45 -246.85 -30.95 -242.7 -52.25 -238.3 -72.15 -229.25 -88.5 -221.95 -104.1 -213.35
L 26.65 -221.8
M 254.95 -250
Q 250.4 -242.5 243.05 -235.8
L 322.95 -241 328.6 -187.9 341.75 -184.85
Q 348.95 -183.5 355.55 -183.1
L 354.75 -191.15 358.4 -194.35
Q 360.8 -196.45 360.5 -199.5
L 355.4 -250 254.95 -250
M 210.45 -241.15
Q 216.45 -245.95 220.25 -250
L 139.7 -250
Q 131.9 -240.2 123.75 -233.15 120.4 -230.25 116.85 -227.65
L 199.25 -233
Q 204.95 -236.7 210.45 -241.15 Z"/>
</g>

<g id="Sprites_Sprite_171_0_Layer0_0_FILL">
<path fill="#FED881" stroke="none" d="
M -343.95 219.1
L -346.15 216.8 -339.8 279.1 -266.5 271.65
Q -309.7 247.15 -343.95 219.1
M -339.85 -205
L -383.55 -199.9 -379.5 -160.25
Q -361 -183.9 -339.85 -205
M 245 -269.85
L 248.5 -268.65 297.65 -236
Q 327.15 -215.9 352.95 -193.3
L 353.55 -192.75 344.8 -279.1 245 -269.85 Z"/>

<path fill="#547B7B" stroke="none" d="
M -340.45 212.1
L -334.05 217.25 -334.9 209.2 -341.35 203.35 -341.3 203.8 -340.45 212.1
M -371.55 -150.65
L -372.4 -158.2 -377.45 -151.7 -376.8 -145 -376.65 -143.75 -376.35 -144.15 -371.55 -150.65
M -328.15 -200.3
L -327.8 -200.65 -322.15 -206.15 -323.3 -206.05 -323.85 -205.95 -329.75 -205.3 -335.6 -199.55 -329.1 -200.2 -328.15 -200.3
M 348.25 -179.8
L 348.2 -180.45 347.35 -188.75 340.65 -194.5 341.7 -185.15 348.25 -179.8
M 242.9 -264.1
L 234.65 -263.35 231.65 -263.05 236.1 -260.4 239.2 -258.55 250 -259.4 242.9 -264.1 Z"/>

<path fill="#FFF69F" stroke="none" d="
M -266.5 271.65
L -257.6 270.75
Q -259.8 270.7 -263.95 269.25 -307.75 244.5 -342.45 216.1 -345.65 213.05 -346.75 210.55
L -346.15 216.8 -343.95 219.1
Q -309.7 247.15 -266.5 271.65
M -331.5 -208.3
L -327.45 -209.3 -327.75 -209.55 -334.55 -208.75 -386.8 -202.65 -382 -155.35 -381.45 -150.2 -381.3 -148.7 -381.05 -148.5 -380.5 -153.3 -379.95 -153.95 -379 -155.2
Q -358.25 -182.05 -334.2 -205.65
L -332.25 -207.55 -331.5 -208.3
M -383.55 -199.9
L -339.85 -205
Q -361 -183.9 -379.5 -160.25
L -383.55 -199.9
M 248.5 -268.65
L 245 -269.85 238.6 -269.25 245.35 -266.9 294.5 -234.25
Q 324 -214.15 349.8 -191.55
L 351.9 -189.7 354.3 -185.7 353.55 -192.75 352.95 -193.3
Q 327.15 -215.9 297.65 -236
L 248.5 -268.65 Z"/>

<path fill="#AE8831" stroke="none" d="
M -256.25 270.65
L -252.6 264.3 -261.95 265.25 -260.25 266.2 -261.95 265.25
Q -301.75 242.75 -334.05 217.25
L -340.45 212.1 -341.05 211.6 -340.45 212.1 -341.3 203.8 -346.75 210.55
Q -345.65 213.05 -342.45 216.1 -307.75 244.5 -263.95 269.25 -259.8 270.7 -257.6 270.75
L -256.35 270.65 -256.25 270.65
M -327.45 -209.3
L -331.5 -208.3 -332.25 -207.55 -334.2 -205.65
Q -358.25 -182.05 -379 -155.2
L -379.95 -153.95 -380.5 -153.3 -381.05 -148.5 -376.8 -145 -377.45 -151.7 -378 -151.05 -377.45 -151.7 -372.4 -158.2
Q -355.1 -180 -335.6 -199.55
L -329.75 -205.3 -329 -206.05 -329.75 -205.3 -323.85 -205.95 -327.45 -209.3
M 234.65 -263.35
L 242.9 -264.1 250 -259.4 292.05 -231.45
Q 317.75 -213.9 340.65 -194.5
L 347.35 -188.75 349.45 -186.9 347.35 -188.75 348.2 -180.45 354.3 -185.65 354.3 -185.7 351.9 -189.7 349.8 -191.55
Q 324 -214.15 294.5 -234.25
L 245.35 -266.9 238.6 -269.25 234.65 -263.35 Z"/>

<path fill="#365D5D" stroke="none" d="
M -290.05 241.35
Q -301.8 234.05 -313.15 226.05 -324.35 218.05 -334.9 209.2
L -334.05 217.25
Q -301.75 242.75 -261.95 265.25
L -252.6 264.3 -250.45 264.1 -265.8 255.7
Q -278.15 248.85 -290.05 241.35
M -328.15 -200.3
L -329.1 -200.2 -335.6 -199.55
Q -355.1 -180 -372.4 -158.2
L -371.55 -150.65 -371.15 -151.2
Q -356.85 -170.1 -339.55 -188.6
L -328.15 -200.3
M 292.05 -231.45
L 250 -259.4 239.2 -258.55
Q 251.05 -251.1 279 -231.65 316.4 -205.55 341.7 -185.15
L 340.65 -194.5
Q 317.75 -213.9 292.05 -231.45 Z"/>

<path fill="#688F8F" stroke="none" d="
M -371.5 -149.95
L -371.55 -150.65 -376.35 -144.15 -376.65 -143.75 -376.55 -142.8 -376.4 -141.3 -342.95 187.7 -341.45 202.65 -341.35 203.35 -334.9 209.2 -335 208.2 -337.1 187.7 -370.55 -141.3 -371.5 -149.95
M 365.5 -10.45
L 359.15 -13.5 380.85 199.9 386.8 199.3 365.5 -10.45
M 348.25 -179.8
L 341.7 -185.15 359.15 -13.5 365.5 -10.45 348.25 -179.8
M 234.65 -258.15
L 239.2 -258.55 236.1 -260.4 231.65 -263.05 224.55 -262.4 45.05 -245.45 -40.3 -236.9
Q -177.55 -222.85 -314.75 -207
L -322.15 -206.15 -327.8 -200.65 -328.15 -200.3 -323.85 -200.75 -314.75 -201.8
Q -177.55 -217.65 -40.3 -231.7
L 45.05 -240.25 232.25 -257.9 234.65 -258.15 Z"/>

<path fill="#4A7171" stroke="none" d="
M 239.2 -258.55
L 234.65 -258.15 232.25 -257.9 45.05 -240.25 -40.3 -231.7
Q -177.55 -217.65 -314.75 -201.8
L -323.85 -200.75 -328.15 -200.3 -339.55 -188.6
Q -356.85 -170.1 -371.15 -151.2
L -371.55 -150.65 -371.5 -149.95 -370.55 -141.3 -337.1 187.7 -335 208.2 -334.9 209.2
Q -324.35 218.05 -313.15 226.05 -301.8 234.05 -290.05 241.35 -278.15 248.85 -265.8 255.7
L -250.45 264.1 380.85 199.9 359.15 -13.5 341.7 -185.15
Q 316.4 -205.55 279 -231.65 251.05 -251.1 239.2 -258.55 Z"/>
</g>

<g id="Sprites_Sprite_176_0_Layer2_0_FILL">
<path fill="#223333" stroke="none" d="
M -47.35 19.7
L -47.5 19.05
Q -54.45 16.9 -60.85 20.3
L -60.85 20.95 -60.5 21.25
Q -53.9 18.95 -47.35 19.7
M -46.85 14.8
L -46.6 13.5
Q -55.8 11.4 -63.25 17.15
L -63.1 18.2 -62.35 18.5 -60.55 17.5
Q -54.05 14.25 -46.85 14.8
M -45.1 10
Q -43.35 9 -44.9 8 -45.75 7.55 -46.75 7.4 -56.1 6.85 -64.6 10.9 -66.45 11.8 -67.15 13.7 -67.3 14.05 -66.95 14.35 -66.6 14.7 -66.05 14.9 -56.7 8.9 -45.6 10
L -45.1 10
M -54.7 -41.95
L -56.05 -41.15
Q -48.75 -38.9 -49.1 -31.5
L -47.5 -32.05 -47.45 -32.9
Q -47.35 -40.5 -54.7 -41.95
M -56.6 -38.7
L -57.65 -38.05
Q -53.3 -36.65 -53.1 -32.05
L -51.5 -32.6
Q -51.4 -37.85 -56.6 -38.7
M -83.8 -17.4
L -82.35 -18.25
Q -85.1 -20.25 -84.8 -23.85
L -86.45 -23.3
Q -86.85 -19.45 -83.8 -17.4
M -87.95 -24.05
L -89.65 -23.45
Q -90.45 -17.85 -85.75 -14.85
L -84.35 -15.6
Q -88.6 -18.7 -87.95 -24.05
M -81.75 -23.5
Q -83.45 -22.75 -83.35 -20.9 -80.4 -18.05 -76.75 -20.4 -80.7 -13.05 -77.85 -5.3
L -76.95 -5.4
Q -74.9 4.35 -70.05 12.9
L -69.6 12.9
Q -64.4 8.8 -58.4 6.8 -55.4 5.85 -52.25 5.55
L -41.65 4.45
Q -42.8 -6 -48.8 -14.6
L -47.55 -15.2
Q -51.3 -24.85 -61.6 -26.8
L -57.95 -28.3
Q -56.2 -29.15 -55.15 -30.9 -53.2 -34.2 -57.15 -34.9 -64.45 -31.9 -70.5 -26.35 -76.4 -26.1 -81.75 -23.5
M -81.15 -21.15
Q -81.6 -21.15 -82 -21.4 -77.7 -24.55 -72.25 -24.75 -76.15 -21.2 -81.15 -21.15
M -67.6 -26.65
L -61 -32.15
Q -58.6 -33.85 -56.05 -33.4 -60.7 -28.35 -67.6 -26.65
M -61 -0.45
Q -61.7 -0.6 -72.25 -6.05 -66.8 -7.05 -63.35 -8.2 -59.3 -9.6 -52.1 -12.95
L -59.25 -1.55
Q -60.2 -0.2 -61 -0.45
M -69 -9.25
Q -70.8 -16.8 -68.9 -24.5
L -67.5 -24.1
Q -59.1 -21.75 -55.5 -13.65 -62.05 -9.5 -69 -9.25
M -50.85 -12.7
L -49.8 -11.35
Q -45.2 -5.35 -43.4 2.2
L -43.25 3.3
Q -56.95 3.2 -69.3 8.85 -72.5 3.05 -73.95 -3.65
L -61.15 1.95
Q -54.6 -4.1 -50.85 -12.7
M -81.7 -3.85
L -82.4 -4.5 -80.95 -6.6 -81.35 -8.35 -83.85 -4.4
Q -84.65 -2.9 -83.25 -1.7
L -84.35 -1.75
Q -85.05 -1.7 -85.3 -1.35 -87.4 1.4 -87.95 5 -88.05 5.6 -87.65 5.9 -86.75 6.7 -86.3 7.65 -86.35 8.05 -86.9 7.9 -88.2 7.65 -88.6 8.9 -89.15 10.6 -88.95 12.75 -88.8 14.35 -88 15.6
L -86.2 17.45
Q -86.35 17.9 -86.9 18
L -87.45 18.6
Q -88.4 22.15 -86.05 25.4
L -85.25 25.85
Q -83.85 25.85 -82.85 26.7 -82.7 27.3 -83.25 27.7 -84.1 28.25 -83.7 29.1 -82.4 31.95 -80.15 33.85
L -77.55 33.8 -76.95 33.95 -76.75 34.85 -76.9 35.15
Q -77.1 35.7 -76.9 36.1 -74.95 39.6 -71 40.45
L -70.2 40.05 -69.2 39.05 -68.5 39.4 -68.5 40.2
Q -68.65 41.7 -67.45 42.2 -64.4 43.3 -61.2 43.4
L -60.05 41.65 -59.2 41.45
Q -58.7 41.75 -58.7 42.2 -58.7 43.3 -57.7 43.45 -54.85 44.05 -51.8 43.05
L -50.8 42.5
Q -50 41.45 -49.85 40.45 -49.15 40.35 -48.85 41.1 -48.35 42.35 -47 41.85
L -43.05 40.5
Q -41.05 39.75 -40.65 37.9
L -40.85 37.35 -41.05 36.5 -40.85 36.35 -40.45 36.5 -39 37.15 -38.4 37.3 -38.1 37.2 -35.1 34.85
Q -33.45 33.6 -33.15 31.8 -32.9 30.4 -34.3 30.3
L -33.9 29.7 -33.65 29.6 -31.9 29.8
Q -30.45 29.4 -30.1 28.05
L -22.4 25.05 -20.95 24.65 -19.8 24.35 -18.95 24.2 -18.2 24 -14.25 23.45 -14.45 21.3 -17.8 21.8 -18.4 21.95 -19.8 22.25 -21.15 22.65 -22.4 23 -28.8 25.4 -28.6 24.7
Q -28.2 22.8 -29.75 21.35
L -29 21.05 -28.55 21.15
Q -27.8 21.15 -27.15 20.65
L -26.7 20.25 -26.1 15.9 -22.4 14.85 -21.85 14.7 -21.4 14.6 -19.8 14.3 -19.1 14.2 -15.1 13.8 -15.3 11.65 -19.25 12.1 -19.8 12.2 -20.2 12.25 -22 12.65 -22.4 12.75 -26 13.85 -26.65 12.9 -27.4 12.65 -27.85 12.45 -28.25 11.9 -28.05 11.35 -26.65 10.5
Q -24.8 9.15 -26.6 7.7
L -26.85 5.9 -22.4 4.8 -19.95 4.45 -19.8 4.4 -16.6 4.2 -15.95 4.15 -16.15 2 -19.8 2.3 -20.1 2.35 -22.4 2.7 -27.1 3.65 -27.3 3.45 -29.3 3 -29.95 2 -28.25 0.65 -29.45 -3.65 -22.4 -5.1 -20.8 -5.25 -19.8 -5.3 -19 -5.35 -16.8 -5.4 -16.95 -7.6 -17.75 -7.55 -19.8 -7.45 -20.95 -7.4 -22.4 -7.25 -31.2 -5.35 -31.95 -5.85 -33.45 -5.9 -34.5 -5.85 -34.7 -6.75 -33.75 -8.25 -33.8 -8.55
Q -34.1 -10.9 -36.35 -11.6 -29.6 -14.4 -22.4 -14.8
L -21.6 -14.85 -21.4 -14.85 -19.8 -14.95 -17.6 -15 -17.8 -17.15 -19.8 -17.1 -20.2 -17.1 -21.8 -17.05 -22.4 -17
Q -30.85 -16.2 -38.45 -12.9
L -38.55 -13.05 -39.65 -13.3
Q -40.25 -13.1 -40.7 -12.7
L -41 -12.45 -41.35 -12.3 -42 -12.65 -41.8 -14.05
Q -41.75 -14.95 -42.55 -15.4
L -46.6 -17.35 -46.35 -16.6 -42.9 -15.05
Q -43.65 -13.2 -42 -12.1 -40.3 -11 -38.95 -12.55
L -35.05 -9
Q -36.6 -7.1 -34.9 -5.55 -33.65 -4.5 -32.15 -5.4
L -29.6 -0.85 -30.6 0.6
Q -30.9 1.3 -30.65 2.05 -30.05 4 -28.05 3.6
L -27.1 8.75
Q -29.45 9.2 -29.05 11.5 -28.8 13.15 -27.05 13.4
L -27.85 18.6
Q -29.3 18.3 -30.1 19.45 -31.6 21.6 -29.3 23
L -31.7 27.65
Q -33.5 26.75 -34.7 28.3 -36 29.9 -34.55 31.4
L -38.35 34.95
Q -39.55 33.65 -41.05 34.45 -43.2 35.5 -42.25 37.6
L -46.95 39.75
Q -47.95 37.85 -49.7 38.45 -51.55 39.2 -51.95 41.05
L -56.75 41.45
Q -56.85 40.1 -58.15 39.55 -60.5 38.55 -61.4 41.1
L -66.5 39.9
Q -66.05 38.4 -67.15 37.55 -69.1 35.95 -70.8 38.1
L -75.15 35.25
Q -74.05 33.45 -75.5 32.15 -76.95 30.85 -78.7 32.15
L -81.95 28.1
Q -80 26.65 -81.45 24.75 -82.6 23.3 -84.25 24
L -86 19.05
Q -85.25 18.95 -84.8 18.45 -83.95 17.35 -84.45 16 -85.05 14.4 -86.85 14.5
L -86.9 9.25
Q -85.05 9.3 -84.6 7.65 -83.95 5.35 -86.2 4.6
L -84.55 -0.35 -82.75 -0.3 -82 -0.75 -81.65 -0.95 -81.3 -2.2
Q -81.05 -3.15 -81.7 -3.85 Z"/>

<path fill="url(#Gradient_1)" stroke="none" d="
M 83.05 -2.4
L 89.8 -3.3 89.4 -5.45 84.1 -4.7
Q 78.65 -3.6 75.3 -1.65 73.8 -0.8 69.6 1.85
L 63.9 5.2
Q 58 8.3 50.95 8.8
L 44.05 8.85 37.15 8.75
Q 30.2 8.9 23.3 11.8 20.9 12.8 16.85 15.1
L 10.45 18.4
Q 5.45 20.7 -3.2 20.95
L -10.5 21.05 -14.45 21.3 -14.25 23.45 -11.7 23.3
Q -9.3 23.15 -4.4 23.15 3.75 23.1 9.3 20.85 11.65 19.9 15.75 17.6 20.15 15.15 22.1 14.3 28.85 11.25 36 11
L 42.9 11.05 49.75 11.05
Q 56.55 10.75 62.85 7.65 65.2 6.5 68.6 4.4
L 74.2 0.85
Q 77.35 -1.15 83.05 -2.4
M 48.5 -0.75
Q 45.9 -0.55 41.6 -0.7
L 34.7 -0.75
Q 27.8 -0.6 20.85 2.25 18.45 3.25 14.4 5.55 10.05 7.95 8 8.85 3.05 11.2 -5.6 11.45
L -12.9 11.5 -15.3 11.65 -15.1 13.8 -14.15 13.75 -6.8 13.65
Q 1.4 13.5 6.85 11.3
L 13.3 8.1
Q 17.7 5.55 19.7 4.7 26.35 1.75 33.55 1.45
L 40.45 1.5 47.35 1.5
Q 54.15 1.2 60.4 -1.85
L 66.15 -5.15 71.75 -8.75
Q 75.1 -10.75 80.6 -11.9
L 88.1 -12.85 87.7 -15.05 81.7 -14.25
Q 76.2 -13.15 72.85 -11.2
L 67.2 -7.7 61.5 -4.3
Q 55.55 -1.2 48.5 -0.75
M 18.45 -7.25
Q 16 -6.25 12 -4.05
L 5.6 -0.65
Q 0.4 1.65 -8.05 1.85
L -15.35 1.95 -16.15 2 -15.95 4.15 -9.25 4.1
Q -1.05 3.95 4.45 1.8
L 10.9 -1.45 17.25 -4.8
Q 23.9 -7.8 31.15 -8.05
L 38 -8.05 44.9 -8.05
Q 51.55 -8.3 58 -11.4 60.4 -12.6 63.75 -14.7
L 69.35 -18.25
Q 72.65 -20.25 78.2 -21.45
L 86.4 -22.4 86 -24.6 79.25 -23.8
Q 73.75 -22.7 70.4 -20.75
L 64.8 -17.25 59.05 -13.85
Q 52.95 -10.7 46.1 -10.3 43.5 -10.1 39.2 -10.25
L 32.3 -10.3
Q 25.35 -10.2 18.45 -7.25
M 2 -7.75
Q 4.3 -8.7 8.45 -11
L 14.85 -14.35
Q 21.65 -17.35 28.7 -17.6
L 35.6 -17.6 42.5 -17.55
Q 49.35 -17.9 55.55 -20.95
L 61.3 -24.25 66.95 -27.8
Q 70.1 -29.8 75.75 -31.05 80.55 -32.05 84.65 -31.9
L 84.25 -34.2 76.85 -33.35
Q 71.35 -32.2 68 -30.3
L 62.35 -26.8 56.65 -23.45
Q 50.7 -20.3 43.65 -19.85 41.05 -19.65 36.75 -19.75
L 29.9 -19.85
Q 22.9 -19.75 16 -16.8 13.6 -15.8 9.55 -13.55 5.1 -11.15 3.15 -10.25 -2 -7.85 -10.45 -7.65
L -16.95 -7.6 -16.8 -5.4 -11.65 -5.45
Q -3.45 -5.6 2 -7.75
M 26.3 -27.2
L 33.2 -27.1 40.05 -27.1
Q 46.85 -27.4 53.15 -30.5 55.5 -31.65 58.85 -33.8
L 64.5 -37.35
Q 67.65 -39.3 73.35 -40.55 78.35 -41.7 82.95 -41.45
L 82.6 -43.7 74.4 -42.85
Q 68.9 -41.75 65.55 -39.8 64.15 -39.05 59.9 -36.3
L 54.2 -32.95
Q 48.3 -29.85 41.25 -29.4 38.65 -29.2 34.35 -29.35
L 27.45 -29.4
Q 20.5 -29.25 13.6 -26.35 11.2 -25.4 7.15 -23.1
L 0.75 -19.75
Q -4.25 -17.5 -12.9 -17.2
L -17.8 -17.15 -17.6 -15 -14.1 -15
Q -5.95 -15.05 -0.4 -17.3 1.95 -18.25 6.05 -20.55
L 12.4 -23.9
Q 19.15 -26.9 26.3 -27.2 Z"/>
</g>

<g id="Sprites_Sprite_176_0_Layer1_0_FILL">
<path fill="#223333" stroke="none" d="
M -53.3 27.8
L -55 28.15 -53.85 34.4 -52.2 34.05 -53.3 27.8
M -49 26.2
L -47.35 29.85 -50.8 27.25 -52.25 28 -49.95 33.45 -48.45 32.8 -49.8 29.7 -46.35 32.35 -44.85 31.55 -47.45 25.45 -49 26.2
M -61.2 28.25
L -61.55 30.75
Q -61.7 34.65 -58.85 34.75 -56 34.9 -55.8 30.95
L -55.95 28.15 -57.65 28.15 -57.55 30.95
Q -57.65 33.1 -58.8 33.1 -59.9 33 -59.85 30.65
L -59.5 28.55 -61.2 28.25
M -64.75 28.25
Q -63.8 28.65 -63.9 29.7
L -62.15 30.2
Q -62 29.1 -62.55 28.2 -63.05 27.35 -64.2 26.9
L -66.8 26.95
Q -67.85 27.5 -68.4 28.95 -69 30.4 -68.45 31.6 -67.9 32.8 -66.55 33.3
L -64 33.25
Q -62.85 32.65 -62.3 31
L -65.55 29.8 -66 30.95 -64.35 31.55
Q -64.95 32.3 -65.9 31.95 -67.4 31.4 -66.75 29.5 -66.5 28.7 -65.95 28.4
L -64.75 28.25
M -70.25 23.65
L -71.5 22.65 -75.35 27.25 -74.1 28.3 -71.9 25.6 -72.7 29.9 -71.3 30.9 -67.15 25.8 -68.4 24.7 -70.95 27.95 -70.25 23.65
M -77.2 22.4
L -76.25 21.85 -75 24 -73.9 23.35 -75.2 21.2 -74.15 20.5 -72.5 23.15 -71.35 22.4 -73.85 18.35 -79.2 21.65 -76.85 25.8 -75.6 25.1 -77.2 22.4
M -74.45 15.3
L -75.15 13.3 -81.15 14.6 -80.7 16.25 -79.25 15.95 -79.15 16.7
Q -78.6 19.65 -76.2 19.15 -73.8 18.65 -74.45 15.3
M -77.9 16.35
L -78 15.6 -76 15.15 -75.75 15.85
Q -75.45 17.25 -76.45 17.5 -77.55 17.75 -77.9 16.35
M -37.95 24.2
L -40.4 20.7 -36.3 24 -35.25 22.7 -40.6 18.65 -42.1 20.45 -39.7 23.85 -43.15 22.3 -44.7 24.15 -40.25 28.15 -39.15 26.85 -42.75 23.85 -39.05 25.5 -37.95 24.2
M -33 16.8
L -32.5 15.05 -39.35 14.8 -40.15 17.35 -34.8 21 -34.25 19.3 -35.05 18.8 -34.35 16.7 -33 16.8
M -36.2 18.1
L -38.8 16.5 -35.7 16.65 -36.2 18.1
M -34.5 7.9
L -39.15 8.95 -38.8 10.55 -32.65 9.2 -33.55 4.85 -35.05 5.2 -34.5 7.9
M -32.6 11.5
L -38.95 11.35 -39 13 -32.7 13.25 -32.6 11.5 Z"/>
</g>

<g id="Shapes_Shape_205_0_Layer1_0_FILL">
<path fill="#D7D7BD" stroke="none" d="
M 0.65 43.2
Q 0 45.3 0 48.05
L 0 79.9 5 80.15 5 48.05
Q 5 42.75 9 41.5
L 8.05 41.5
Q 3.4 41.45 0.65 43.2
M 528.9 46.9
L 528.95 48.05 528.95 107.65 531.5 107.75 530.25 53.15
Q 530.15 49.45 528.9 46.9 Z"/>

<path fill="#F1E3C7" stroke="none" d="
M 524.15 41.25
L 523.9 41.15 513.5 41.05
Q 511.45 41.05 510 39.6
L 509.95 39.6 478.7 8.35 477 7.25 476.9 7.2
Q 472.85 4.85 468.15 5
L 468.1 5 467.95 5 332.95 5 332.85 5 332.8 5
Q 328.05 4.85 324.05 7.2
L 323.9 7.25 322.2 8.35 290.95 39.6
Q 289.45 41.05 287.4 41.05
L 12 41.05 9 41.5 518.4 41.5 521 41.7
Q 526.7 42.55 528.9 46.9 528.45 42.1 524.15 41.25 Z"/>

<path fill="#FFFFE5" stroke="none" d="
M 522.35 36.05
L 513.5 36.05 482 4.55 479.65 3
Q 474.25 -0.2 467.95 0
L 332.95 0
Q 326.65 -0.2 321.25 3
L 318.95 4.55 287.4 36.05 12 36.05
Q 2.75 36.05 0.65 43.2 3.4 41.45 8.05 41.5
L 9 41.5 12 41.05 287.4 41.05
Q 289.45 41.05 290.95 39.6
L 322.2 8.35 323.9 7.25 324.05 7.2
Q 328.05 4.85 332.8 5
L 332.85 5 332.95 5 467.95 5 468.1 5 468.15 5
Q 472.85 4.85 476.9 7.2
L 477 7.25 478.7 8.35 509.95 39.6 510 39.6
Q 511.45 41.05 513.5 41.05
L 523.9 41.15 524.15 41.25
Q 528.45 42.1 528.9 46.9 530.15 49.45 530.25 53.15
L 531.5 107.75 533.95 107.9 533.95 48.05
Q 533.95 37.65 524.95 36.3
L 522.35 36.05 Z"/>

<path fill="#C9BB9F" stroke="none" d="
M 528.95 48.05
L 528.9 46.9
Q 526.7 42.55 521 41.7
L 518.4 41.5 9 41.5
Q 5 42.75 5 48.05
L 5 80.15 528.95 107.65 528.95 48.05 Z"/>
</g>

<g id="Shapes_Shape_205_0_Layer0_0_FILL">
<path fill="#F1E3C7" stroke="none" d="
M 520.3 58.75
Q 520.2 53.05 515.35 52.15
L 515.3 52.15 513.35 52 3.1 52
Q -0.5 51.95 -2.3 53.45 -3.75 55.2 -3.65 58.55
L -3.15 79.75 521.4 107.25 520.3 58.75 Z"/>

<path fill="#FFFFE5" stroke="none" d="
M 516.05 47.2
L 513.45 47 3.1 47
Q -8.9 46.95 -8.65 58.65
L -8.15 79.5 -3.15 79.75 -3.65 58.55
Q -3.75 55.2 -2.3 53.45 -0.5 51.95 3.1 52
L 513.35 52 515.3 52.15 515.35 52.15
Q 520.2 53.05 520.3 58.75
L 521.4 107.25 526.4 107.5 525.3 58.65
Q 525.1 48.55 516.05 47.2 Z"/>
</g>

<path id="Sprites_Sprite_171_0_Layer0_0_1_STROKES" stroke="#000000" stroke-width="2" stroke-linejoin="round" stroke-linecap="round" fill="none" d="
M 231.65 -263.05
L 224.55 -262.4 45.05 -245.45 -40.3 -236.9
Q -177.55 -222.85 -314.75 -207
L -322.15 -206.15
M 380.85 199.9
L -250.45 264.1
M 250 -259.4
L 242.9 -264.1 234.65 -263.35 231.65 -263.05
M 234.65 -263.35
L 238.6 -269.25 245 -269.85 344.8 -279.1 353.55 -192.75 354.3 -185.7 354.3 -185.65 348.2 -180.45 348.25 -179.8 365.5 -10.45 386.8 199.3 380.85 199.9
M 340.65 -194.5
Q 317.75 -213.9 292.05 -231.45
L 250 -259.4
M 349.45 -186.9
L 347.35 -188.75 348.2 -180.45
M 340.65 -194.5
L 347.35 -188.75
M -327.45 -209.3
L -327.75 -209.55 -334.55 -208.75 -386.8 -202.65 -382 -155.35 -381.45 -150.2 -381.3 -148.7 -381.05 -148.5 -376.8 -145 -377.45 -151.7 -378 -151.05
M -329 -206.05
L -329.75 -205.3 -335.6 -199.55
M -329.75 -205.3
L -323.85 -205.95 -327.45 -209.3
M -372.4 -158.2
L -377.45 -151.7
M -376.65 -143.75
L -376.55 -142.8 -376.4 -141.3 -342.95 187.7 -341.45 202.65 -341.35 203.35
M -334.05 217.25
Q -301.75 242.75 -261.95 265.25
L -252.6 264.3 -250.45 264.1
M -376.65 -143.75
L -376.8 -145
M -372.4 -158.2
Q -355.1 -180 -335.6 -199.55
M -323.85 -205.95
L -323.3 -206.05 -322.15 -206.15
M -252.6 264.3
L -256.25 270.65 -256.35 270.65 -257.6 270.75 -266.5 271.65 -339.8 279.1 -346.15 216.8 -346.75 210.55 -341.3 203.8 -341.35 203.35
M -261.95 265.25
L -260.25 266.2
M -341.3 203.8
L -340.45 212.1 -334.05 217.25
M -341.05 211.6
L -340.45 212.1"/>

<path id="Shapes_Shape_205_0_Layer1_0_1_STROKES" stroke="#000000" stroke-width="2" stroke-linejoin="round" stroke-linecap="round" fill="none" d="
M 533.95 107.9
L 533.95 48.05
Q 533.95 37.65 524.95 36.3
L 522.35 36.05 513.5 36.05 482 4.55 479.65 3
Q 474.25 -0.2 467.95 0
L 332.95 0
Q 326.65 -0.2 321.25 3
L 318.95 4.55 287.4 36.05 12 36.05
Q 2.75 36.05 0.65 43.2 0 45.3 0 48.05
L 0 79.9"/>

<path id="Shapes_Shape_205_0_Layer0_0_1_STROKES" stroke="#000000" stroke-width="2" stroke-linejoin="round" stroke-linecap="round" fill="none" d="
M 526.4 107.5
L 525.3 58.65
Q 525.1 48.55 516.05 47.2
L 513.45 47 3.1 47
Q -8.9 46.95 -8.65 58.65
L -8.15 79.5"/>
</defs>

<g id="ib_bg_mc" transform="matrix( 1, 0, 0, 1, 0,0) ">
<g transform="matrix( 1, 0, 0, 1, 0,0) ">
<use xlink:href="#Sprites_Sprite_167_0_Layer0_0_FILL"/>
</g>
</g>

<g id="inbox_mc" transform="matrix( 1, 0, 0, 1, 0,0) ">
<g transform="matrix( 1, 0, 0, 1, 380,240) ">
<g transform="matrix( 1, 0, 0, 1, 0,0) ">
<use xlink:href="#Sprites_Sprite_169_0_Layer0_0_FILL"/>
</g>
</g>

<g transform="matrix( 1, 0, 0, 1, 380.25,224.8) ">
<g transform="matrix( 1, 0, 0, 1, 0,0) ">
<use xlink:href="#Sprites_Sprite_171_0_Layer0_0_FILL"/>

<use xlink:href="#Sprites_Sprite_171_0_Layer0_0_1_STROKES"/>
</g>
</g>

<g id="postage_mc" transform="matrix( 1, 0, 0, 1, 448.35,27.8) ">
<g transform="matrix( 1, 0, 0, 1, 0,0) ">
<use xlink:href="#Sprites_Sprite_176_0_Layer2_0_FILL"/>
</g>

<g transform="matrix( 1, 0, 0, 1, 0,0) ">
<use xlink:href="#Sprites_Sprite_176_0_Layer1_0_FILL"/>
</g>
</g>

<g id="new_message_holder_mc" transform="matrix( 0.939697265625, 0.3420257568359375, -0.3420257568359375, 0.939697265625, 108.9,-64) "/>

<g id="reply_holder_mc" transform="matrix( 1, 0, 0, 1, 536,-267) "/>

<g transform="matrix( 0.998626708984375, -0.052337646484375, 0.052337646484375, 0.998626708984375, 118.8,429.25) ">
<g transform="matrix( 1, 0, 0, 1, 0,0) ">
<g transform="matrix( 1, 0, 0, 1, 0,0) ">
<use xlink:href="#Shapes_Shape_205_0_Layer1_0_FILL"/>

<use xlink:href="#Shapes_Shape_205_0_Layer1_0_1_STROKES"/>
</g>

<g transform="matrix( 1, 0, 0, 1, 0,0) ">
<use xlink:href="#Shapes_Shape_205_0_Layer0_0_FILL"/>

<use xlink:href="#Shapes_Shape_205_0_Layer0_0_1_STROKES"/>
</g>
</g>
</g>
</g>

<g id="inbox_mc_FL" transform="matrix( 1, 0, 0, 1, 1,1) ">
<g transform="matrix( 1, 0, 0, 1, 380,240) ">
<g transform="matrix( 1, 0, 0, 1, 0,0) ">
<use xlink:href="#Sprites_Sprite_169_0_Layer0_0_FILL"/>
</g>
</g>

<g transform="matrix( 1, 0, 0, 1, 380.25,224.8) ">
<g transform="matrix( 1, 0, 0, 1, 0,0) ">
<use xlink:href="#Sprites_Sprite_171_0_Layer0_0_FILL"/>

<use xlink:href="#Sprites_Sprite_171_0_Layer0_0_1_STROKES"/>
</g>
</g>

<g id="postage_mc_FL" transform="matrix( 1, 0, 0, 1, 448.35,27.8) ">
<g transform="matrix( 1, 0, 0, 1, 0,0) ">
<use xlink:href="#Sprites_Sprite_176_0_Layer2_0_FILL"/>
</g>

<g transform="matrix( 1, 0, 0, 1, 0,0) ">
<use xlink:href="#Sprites_Sprite_176_0_Layer1_0_FILL"/>
</g>
</g>

<g id="new_message_holder_mc_FL" transform="matrix( 0.939697265625, 0.3420257568359375, -0.3420257568359375, 0.939697265625, 108.9,-64) "/>

<g id="reply_holder_mc_FL" transform="matrix( 1, 0, 0, 1, 536,-267) "/>

<g transform="matrix( 0.998626708984375, -0.052337646484375, 0.052337646484375, 0.998626708984375, 118.8,429.25) ">
<g transform="matrix( 1, 0, 0, 1, 0,0) ">
<g transform="matrix( 1, 0, 0, 1, 0,0) ">
<use xlink:href="#Shapes_Shape_205_0_Layer1_0_FILL"/>

<use xlink:href="#Shapes_Shape_205_0_Layer1_0_1_STROKES"/>
</g>

<g transform="matrix( 1, 0, 0, 1, 0,0) ">
<use xlink:href="#Shapes_Shape_205_0_Layer0_0_FILL"/>

<use xlink:href="#Shapes_Shape_205_0_Layer0_0_1_STROKES"/>
</g>
</g>
</g>
</g>
</svg>
