
<svg xmlns="http://www.w3.org/2000/svg" version="1.1" xmlns:xlink="http://www.w3.org/1999/xlink" preserveAspectRatio="none" x="0px" y="0px" width="760px" height="480px" viewBox="0 0 760 480">
<defs>
<linearGradient id="Gradient_1" gradientUnits="userSpaceOnUse" x1="31.15" y1="34.1" x2="31.15" y2="13" spreadMethod="pad">
<stop  offset="0%" stop-color="#999999"/>

<stop  offset="100%" stop-color="#4C4C4C"/>
</linearGradient>

<linearGradient id="Gradient_2" gradientUnits="userSpaceOnUse" x1="43.85" y1="160.75" x2="26.85" y2="160.75" spreadMethod="pad">
<stop  offset="0%" stop-color="#999999"/>

<stop  offset="100%" stop-color="#666666"/>
</linearGradient>

<linearGradient id="Gradient_3" gradientUnits="userSpaceOnUse" x1="43.85" y1="160.75" x2="26.85" y2="160.75" spreadMethod="pad">
<stop  offset="0%" stop-color="#515151"/>

<stop  offset="100%" stop-color="#282828"/>
</linearGradient>

<linearGradient id="Gradient_4" gradientUnits="userSpaceOnUse" x1="43.85" y1="160.75" x2="26.85" y2="160.75" spreadMethod="pad">
<stop  offset="0%" stop-color="#9B9B9B"/>

<stop  offset="100%" stop-color="#7B7B7B"/>
</linearGradient>

<linearGradient id="Gradient_5" gradientUnits="userSpaceOnUse" x1="21.075000000000003" y1="14.6" x2="3.5250000000000004" y2="14.6" spreadMethod="pad">
<stop  offset="0%" stop-color="#CCCCCC"/>

<stop  offset="100%" stop-color="#999999"/>
</linearGradient>

<linearGradient id="Gradient_6" gradientUnits="userSpaceOnUse" x1="43.325" y1="-3.6624999999999996" x2="23.375" y2="-27.5375" spreadMethod="pad">
<stop  offset="0%" stop-color="#CCCCCC"/>

<stop  offset="100%" stop-color="#999999"/>
</linearGradient>

<filter id="Filter_1" x="-20%" y="-20%" width="140%" height="140%" color-interpolation-filters="sRGB">
<feColorMatrix in="SourceGraphic" type="matrix" values="0.75 0 0 0 0 0 0.75 0 0 0 0 0 0.75 0 0 0 0 0 1 0" result="result1"/>
</filter>

<g id="Sprites_Sprite_33_0_Layer0_0_FILL">
<path fill="#333333" stroke="none" d="
M -341.75 205.6
L -342.55 206.05
Q -343.4 206.65 -344.8 207.3
L -348.6 208.55 -356.6 209.2 -364.5 209.6
Q -369 209.8 -380.35 209.35
L -380.35 214.35
Q -369 214.8 -364.5 214.6
L -356.6 214.2 -348.6 213.55 -344.8 212.3
Q -343.4 211.65 -342.55 211.05
L -341.75 210.6 -341.75 205.6
M -380.35 -210.65
L -380.35 -206.65
Q -369 -206.2 -364.5 -206.4
L -348.6 -207.45 -344.8 -208.7
Q -343.4 -209.35 -342.55 -209.95
L -341.75 -210.4 -341.75 -214.4 -342.55 -213.95
Q -343.4 -213.35 -344.8 -212.7
L -348.6 -211.45 -364.5 -210.4
Q -369 -210.2 -380.35 -210.65
M 375.8 -206.7
L 375.35 -206.75 -340.8 -210.6 -341.75 -210.4 -341.75 205.6 -340.4 205.35 375.85 209.2 375.85 -205.7 375.8 -206.7
M 371.5 -202.85
L 371.5 205.65 -338.4 200.95 -338.4 -206.1 371.5 -202.85 Z"/>

<path fill="#1F1F1F" stroke="none" d="
M -348.6 -207.45
L -364.5 -206.4
Q -369 -206.2 -380.35 -206.65
L -380.35 209.35
Q -369 209.8 -364.5 209.6
L -356.6 209.2 -348.6 208.55 -344.8 207.3
Q -343.4 206.65 -342.55 206.05
L -341.75 205.6 -341.75 -210.4 -342.55 -209.95
Q -343.4 -209.35 -344.8 -208.7
L -348.6 -207.45
M 371.5 205.65
L 371.5 -202.85 -338.4 -206.1 -338.4 200.95 371.5 205.65 Z"/>

<path fill="#474747" stroke="none" d="
M 375.35 -206.75
L 375.8 -206.7 375.85 -205.7 375.85 209.2 -340.4 205.35 -341.75 205.6 -341.75 210.6 -340.4 210.35 370.85 214.2 371.55 214.2 375.35 214.2
Q 380.35 214.3 380.35 209.25
L 380.35 -201.7 380.35 -201.95 380.35 -205.7
Q 380.35 -210.7 375.35 -210.75
L 371.15 -210.75 370.85 -210.75 -340.8 -214.6 -341.75 -214.4 -341.75 -210.4 -340.8 -210.6 375.35 -206.75 Z"/>
</g>

<g id="Sprites_Sprite_35_0_Layer0_0_FILL">
<path fill="url(#Gradient_1)" stroke="none" d="
M 40.8 35.25
L 40.8 33.4 47.1 33.1 47.1 23.55
Q 28.3 21 9.45 24.3
L 8.65 24.3
Q 5.85 26.05 2.1 27.25
L 1.5 27.55 15.2 25.65 2.1 30.1 3.5 32.45 21.5 33.4 21.5 35.25 40.8 35.25 Z"/>

<path fill="#999999" stroke="none" d="
M 47.1 22.9
L 47.1 16.25 46.95 15.45 46.8 14.15
Q 46.2 10.8 42.3 8.4 37.75 5.5 31.3 5.5 24.85 5.5 20.25 8.4 17.35 10.2 16.3 12.5
L 15.6 15.35
Q 15.05 17.5 13.95 19.3 11.95 22.2 8.65 24.3
L 9.45 24.3
Q 28.3 18.3 47.1 22.9
M 31.3 9.45
Q 34.85 9.45 37.35 11.05 38.35 11.65 38.95 12.35
L 39.7 13.6 39.9 14.85 39.9 15.1 39.9 15.35 39.75 16.4
Q 39.3 18 37.35 19.2 34.85 20.8 31.3 20.8 27.75 20.8 25.2 19.2 23.3 18 22.85 16.4
L 22.7 15.35 22.7 15.1 22.7 14.85 22.9 13.6 23.65 12.35
Q 24.2 11.65 25.2 11.05 27.75 9.45 31.3 9.45
M 22.7 15.1
L 23 13.85
Q 23.6 15.15 25.2 16.2 27.75 17.8 31.3 17.8 34.85 17.8 37.35 16.2 39 15.15 39.6 13.85
L 39.9 15.1 39.9 14.85 39.7 13.6 38.95 12.35
Q 38.35 13.1 37.35 13.7 34.85 15.3 31.3 15.3 27.75 15.3 25.2 13.7
L 23.65 12.35 22.9 13.6 22.7 14.85 22.7 15.1
M 46.8 8.65
Q 46.2 5.3 42.3 2.9 37.75 0 31.3 0 24.85 0 20.25 2.9 17.35 4.7 16.3 7
L 15.6 9.85
Q 15.05 12 13.95 13.8 10.3 19.15 2.1 21.75 -0.05 22.6 0 27.35 0.05 25.05 2.1 24.25 10.3 21.65 13.95 16.3 15.05 14.5 15.6 12.35
L 16.3 9.5
Q 17.35 7.2 20.25 5.4 24.85 2.5 31.3 2.5 37.75 2.5 42.3 5.4 46.2 7.8 46.8 11.15
L 46.95 12.45 47.1 13.25 47.1 10.75 46.95 9.95 46.8 8.65 Z"/>

<path fill="#FFFFFF" stroke="none" d="
M 39.9 15.1
L 39.75 16.4 39.9 15.35 39.9 15.1
M 22.85 16.4
L 22.7 15.1 22.7 15.35 22.85 16.4 Z"/>

<path fill="#BFBFBF" stroke="none" d="
M 23 13.85
L 22.7 15.1 22.85 16.4
Q 23.3 18 25.2 19.2 27.75 20.8 31.3 20.8 34.85 20.8 37.35 19.2 39.3 18 39.75 16.4
L 39.9 15.1 39.6 13.85
Q 39 15.15 37.35 16.2 34.85 17.8 31.3 17.8 27.75 17.8 25.2 16.2 23.6 15.15 23 13.85
M 46.8 11.15
Q 46.2 7.8 42.3 5.4 37.75 2.5 31.3 2.5 24.85 2.5 20.25 5.4 17.35 7.2 16.3 9.5
L 15.6 12.35
Q 15.05 14.5 13.95 16.3 10.3 21.65 2.1 24.25 0.05 25.05 0 27.35
L 0 27.75 1.5 27.55 2.1 27.25
Q 5.85 26.05 8.65 24.3 11.95 22.2 13.95 19.3 15.05 17.5 15.6 15.35
L 16.3 12.5
Q 17.35 10.2 20.25 8.4 24.85 5.5 31.3 5.5 37.75 5.5 42.3 8.4 46.2 10.8 46.8 14.15
L 46.95 15.45 47.1 16.25 47.1 13.25 46.95 12.45 46.8 11.15 Z"/>

<path fill="#4C4C4C" stroke="none" d="
M 47.1 23.55
L 47.1 22.9
Q 28.3 18.3 9.45 24.3 28.3 21 47.1 23.55 Z"/>
</g>

<g id="Sprites_Sprite_37_0_Layer0_0_FILL">
<path fill="url(#Gradient_2)" stroke="none" d="
M 27.35 169.05
L 27.35 169.2 25.7 205.1
Q 22.85 262 26.55 321.3
L 47.2 321.3 47.2 170.55 32.7 169.25 32.5 169.25 31.1 169.2 30.7 169.15 27.35 169.05
M 28.95 26.6
L 28.95 26.75 29.2 32
Q 30.8 63.75 29.9 97.4 29.05 128.55 27.65 162.05
L 30.7 162.15 31.4 162.2 32.25 162.25 47.2 163.55 47.2 28.05 32.7 26.75 32.5 26.75 30.7 26.65 28.95 26.6
M 47.2 21.05
L 47.2 4.8 31 3.45 30.7 3.4 27.25 3.3 27.25 3.45 28.5 19.6 30.7 19.65 32.25 19.75 47.2 21.05 Z"/>

<path fill="#898989" stroke="none" d="
M 27.35 169.2
L 27.35 169.05 26.4 169.05 21.4 169.05 0 170.55 0 321.3 26.55 321.3
Q 22.85 262 25.7 205.1
L 27.35 169.2
M 7.4 27.25
L 0 28.05 0 163.55 21.4 162.05 26.4 162.05 27.65 162.05
Q 29.05 128.55 29.9 97.4 30.8 63.75 29.2 32
L 28.95 26.75 28.95 26.6 26.4 26.55 21.4 26.55 7.4 27.25
M 26.4 3.3
L 21.4 3.3 7.4 4 0 4.8 0 21.05 7.4 20.25 21.4 19.55 26.4 19.55 28.5 19.6 27.25 3.45 27.25 3.3 26.4 3.3 Z"/>

<path fill="url(#Gradient_3)" stroke="none" d="
M 27.65 162.05
L 27.65 162.2 27.35 169.05 30.7 169.15 31.1 169.2 32.5 169.25 32.7 169.25 47.2 170.55 47.2 163.55 32.25 162.25 31.4 162.2 30.7 162.15 27.65 162.05
M 47.2 28.05
L 47.2 21.05 32.25 19.75 30.7 19.65 28.5 19.6 28.5 19.75 28.75 23.75 28.95 26.6 30.7 26.65 32.5 26.75 32.7 26.75 47.2 28.05 Z"/>

<path fill="#5B5B5B" stroke="none" d="
M 26.4 162.05
L 21.4 162.05 0 163.55 0 170.55 21.4 169.05 26.4 169.05 27.35 169.05 27.65 162.2 27.65 162.05 26.4 162.05
M 28.75 23.75
L 28.5 19.75 28.5 19.6 26.4 19.55 21.4 19.55 7.4 20.25 0 21.05 0 28.05 7.4 27.25 21.4 26.55 26.4 26.55 28.95 26.6 28.75 23.75 Z"/>

<path fill="#9B9B9B" stroke="none" d="
M 27.25 3.3
L 26.95 0.05 26.4 0.05 21.4 0.05 7.4 0.75 0 1.55 0 4.8 7.4 4 21.4 3.3 26.4 3.3 27.25 3.3 Z"/>

<path fill="url(#Gradient_4)" stroke="none" d="
M 47.2 4.8
L 47.2 1.55 30.7 0.15 26.95 0.05 27.25 3.3 30.7 3.4 31 3.45 47.2 4.8 Z"/>
</g>

<g id="Shapes_Shape_38_0_Layer0_0_FILL">
<path fill="#CCCCCC" stroke="none" d="
M 9.9 4.95
Q 9.9 2.9 8.45 1.45 7 0 4.95 0 2.9 0 1.45 1.45 0 2.9 0 4.95 0 7 1.45 8.45 2.9 9.9 4.95 9.9 7 9.9 8.45 8.45 9.9 7 9.9 4.95
M 3.8 3.9
L 5.9 6 3.8 3.9 Z"/>
</g>

<g id="Symbol_1_0_Layer0_0_FILL">
<path fill="#CCCCCC" stroke="none" d="
M 457.75 417.9
L 457.75 418.7 502.6 418.65 457.75 417.9 Z"/>

<path fill="#DDDCD4" stroke="none" d="
M 18 1.85
L 6.8 3.6
Q 3.95 204.35 6.7 405.1
L 6.8 413.4 18 412.3 18 412.15 17.45 404.05
Q 4.1 202.95 18 1.85
M 710.95 28.45
L 710.95 24.5 707.7 24.5 707.7 423.9 708.7 424.65 710.95 426.2 710.95 28.45
M 715.25 28.45
L 710.95 28.45 710.95 426.2
Q 712.95 427.45 715.25 428.45
L 715.25 28.45
M 707.7 20.4
L 704.65 20.4 704.65 420.9 704.65 420.95 707.7 423.9 707.7 24.5 707.7 20.4
M 701.9 15.5
L 701.9 9.8 700 9.8 700 413.15
Q 700.8 415.2 701.9 417.1
L 701.9 15.5
M 704.65 15.5
L 701.9 15.5 701.9 417.1
Q 703.1 419.15 704.65 420.9
L 704.65 20.4 704.65 15.5 Z"/>

<path fill="#BFBEB6" stroke="none" d="
M 6.8 3.6
Q 2.25 4.6 0 5.95
L 0 414.15 6.8 413.4 6.7 405.1
Q 3.95 204.35 6.8 3.6
M 701.9 417.1
Q 700.8 415.2 700 413.15
L 699.8 413.2 666 415 553.4 416 511.5 415.95 340.8 412.45 113.8 408.7
Q 67.8 407.9 21.9 411.95
L 18 412.3 6.8 413.4 0 414.15 2.7 416.55 24.65 414.9
Q 70.75 411.95 116.95 412.6
L 457.75 417.9 502.6 418.65 556.4 418.85 669.55 418.3 701.9 417.1
M 704.65 420.9
Q 703.1 419.15 701.9 417.1
L 669.55 418.3 556.4 418.85 502.6 418.65 457.75 418.7 457.75 417.9 116.95 412.6
Q 70.75 411.95 24.65 414.9
L 2.7 416.55 5.35 418.9 27.35 417.85
Q 73.7 416 120.1 416.55 194.65 417.25 344.55 419.15
L 384.7 419.9 559.35 421.7 673.05 421.6 704.65 420.9
M 708.7 424.65
L 707.7 423.9 704.65 420.95 704.65 420.9 673.05 421.6 559.35 421.7 384.7 419.9 344.55 419.15
Q 194.65 417.25 120.1 416.55 73.7 416 27.35 417.85
L 5.35 418.9 8.05 421.3 30.1 420.8
Q 76.65 420 123.25 420.45 216 421.15 346.45 422.5
L 519.75 424.3 708.7 424.65
M 715.25 428.45
Q 712.95 427.45 710.95 426.2
L 708.7 424.65 519.75 424.3 346.45 422.5
Q 216 421.15 123.25 420.45 76.65 420 30.1 420.8
L 8.05 421.3 10.65 423.65 715.25 428.45 Z"/>

<path fill="#FBFAF2" stroke="none" d="
M 700 4.95
L 699.8 5 686.5 5.8
Q 625.6 9.1 511.5 7.75
L 457.75 7
Q 407.3 6.15 368.7 5.05
L 340.8 4.25 113.8 0.5
Q 68 -0.3 47.4 0.2
L 18 1.85
Q 4.1 202.95 17.45 404.05
L 18 412.15 18 412.3 21.9 411.95
Q 67.8 407.9 113.8 408.7
L 340.8 412.45 511.5 415.95 553.4 416 666 415 699.8 413.2 700 413.15 700 9.8 700 4.95 Z"/>
</g>

<g id="Shapes_Shape_42_0_Layer0_0_FILL">
<path fill="#000000" stroke="none" d="
M 7.65 -0.55
Q 7.65 -4.15 5.45 -6.55 3.2 -9.05 -0.05 -8.8
L -0.1 -8.8 -1.25 -8.6 -7.6 -0.6 -7.65 0.6
Q -7.65 4.2 -5.5 6.6
L -5.45 6.65
Q -3.2 9.1 0.1 8.8
L 0.4 8.8 2.5 8.2
Q 4.2 7.4 5.5 5.75
L 6.7 3.85 7.45 1.65 7.65 -0.55
M 3.95 -5.2
Q 5.65 -3.35 5.6 -0.5
L 5.25 2.15
Q 4.8 3.4 3.95 4.5
L 3.9 4.5
Q 2.7 6 1.15 6.55
L -1.3 6.8
Q -2.85 6.55 -4 5.3
L -4.95 3.8 -5.55 1.8 0.25 -6.8 2.25 -6.5
Q 3.2 -6.1 3.95 -5.25
L 3.95 -5.2 Z"/>

<path fill="#97968E" stroke="none" d="
M 5.6 -0.5
Q 5.65 -3.35 3.95 -5.2
L 3.95 -5.25
Q 3.2 -6.1 2.25 -6.5
L 0.25 -6.8 -5.55 1.8 -4.95 3.8 -4 5.3
Q -2.85 6.55 -1.3 6.8
L 1.15 6.55
Q 2.7 6 3.9 4.5
L 3.95 4.5
Q 4.8 3.4 5.25 2.15
L 5.6 -0.5 Z"/>
</g>

<g id="Sprites_Sprite_45_0_Layer0_0_FILL">
<path fill="#97968E" stroke="none" d="
M 36.7 -2.05
L 35.65 -3.3 35.65 -3.25 36.7 -2.05
M 41.5 -11.9
L 41.45 -11.9 46.8 -5.6 46.85 -5.6 41.5 -11.9 Z"/>

<path fill="#000000" stroke="none" d="
M 25.3 -30.95
L 24.85 -31.55
Q 21.85 -35 14.65 -35.5
L 14.3 -35.55 14.25 -35.55 7 -35.4
Q -15.75 -34.5 -29.95 -27.75 -47.2 -19.75 -48.35 -6.6 -50.4 6.3 -35.85 18.2 -22.35 29.4 2.9 35.45
L 4.05 35.55 13.25 35.55 13.25 25.55 4.7 25.55
Q -17.5 20.2 -29.5 10.45 -39.05 2.7 -38.45 -5.35
L -38.4 -5.4
Q -37.05 -13.45 -25.75 -18.7
L -25.7 -18.7
Q -13.2 -24.5 6.7 -25.4
L 7.6 -25.4 8.9 -25.45 14.2 -25.55
Q 16.55 -25.35 17.65 -24.55
L 17.7 -24.45 35.65 -3.25 35.65 -3.3 36.7 -2.05 41.6 3.7 43.7 3.1
Q 45.4 2.3 46.7 0.65
L 47.9 -1.25 48.65 -3.45 46.85 -5.55 46.8 -5.6 41.45 -11.9 41.5 -11.9 25.3 -30.95
M 23.15 -30.4
L 23.85 -29.6 45.1 -4.55 46.45 -2.95
Q 46 -1.7 45.15 -0.6
L 45.1 -0.6
Q 43.9 0.9 42.35 1.45
L 40 -1.3 19.25 -25.75 19.2 -25.8
Q 17.7 -27.25 14.05 -27.55
L 10 -27.5 6.95 -27.4 4.05 -27.25
Q -14.55 -26.05 -26.55 -20.5 -39.1 -14.7 -40.4 -5.65
L -40.4 -5.6
Q -40.6 -3.8 -40.3 -2 -39.2 5.1 -30.8 12 -18.45 22.05 4.45 27.55
L 12.15 27.55 12.15 31.15 12.15 33.55 4.05 33.55 3.35 33.5
Q -21.35 27.6 -34.6 16.65 -48.1 5.6 -46.35 -6.35 -45.2 -18.5 -29.1 -25.95 -16.05 -32.1 4.3 -33.25
L 7.3 -33.4 13.25 -33.55 14.25 -33.55 14.5 -33.55
Q 20.45 -33.1 23.15 -30.4 Z"/>

<path fill="url(#Gradient_5)" stroke="none" d="
M 12.15 31.15
L 12.15 27.55 4.45 27.55
Q -18.45 22.05 -30.8 12 -39.2 5.1 -40.3 -2 -41.3 7 -30.8 15.6 -18.45 25.65 4.45 31.15
L 12.15 31.15 Z"/>

<path fill="#999999" stroke="none" d="
M 42.65 -1.55
Q 41.85 -1.1 40.9 -1.1
L 40 -1.3 42.35 1.45
Q 43.9 0.9 45.1 -0.6
L 45.15 -0.6
Q 46 -1.7 46.45 -2.95
L 45.1 -4.55 44.5 -3.45
Q 43.7 -2.1 42.65 -1.55 Z"/>

<path fill="#CCCCCC" stroke="none" d="
M 4.05 -27.25
Q 2.9 -28.75 2.9 -30.7 2.9 -32.65 4.3 -33.25 -16.05 -32.1 -29.1 -25.95 -45.2 -18.5 -46.35 -6.35 -48.1 5.6 -34.6 16.65 -21.35 27.6 3.35 33.5
L 4.05 33.55 12.15 33.55 12.15 31.15 4.45 31.15
Q -18.45 25.65 -30.8 15.6 -41.3 7 -40.3 -2 -40.6 -3.8 -40.4 -5.6
L -40.4 -5.65
Q -39.1 -14.7 -26.55 -20.5 -14.55 -26.05 4.05 -27.25
M 22.85 -30.15
L 23.15 -30.4
Q 20.45 -33.1 14.5 -33.55
L 14.25 -33.55 13.25 -33.55 7.3 -33.4
Q 5.9 -32.65 5.9 -30.7 5.9 -28.85 6.95 -27.4
L 10 -27.5 14.05 -27.55
Q 17.7 -27.25 19.2 -25.8
L 19.25 -25.75 40 -1.3 40.9 -1.1
Q 41.85 -1.1 42.65 -1.55
L 21.85 -26.4
Q 21.35 -27.45 21.35 -28.2 21.35 -28.8 22.85 -30.15 Z"/>

<path fill="#FFFFFF" stroke="none" d="
M 2.9 -30.7
Q 2.9 -28.75 4.05 -27.25
L 6.95 -27.4
Q 5.9 -28.85 5.9 -30.7 5.9 -32.65 7.3 -33.4
L 4.3 -33.25
Q 2.9 -32.65 2.9 -30.7 Z"/>

<path fill="url(#Gradient_6)" stroke="none" d="
M 23.15 -30.4
L 22.85 -30.15
Q 21.35 -28.8 21.35 -28.2 21.35 -27.45 21.85 -26.4
L 42.65 -1.55
Q 43.7 -2.1 44.5 -3.45
L 45.1 -4.55 23.85 -29.6 23.15 -30.4 Z"/>
</g>

<g id="Sprites_Sprite_50_0_Layer2_0_FILL">
<path fill="#000000" stroke="none" d="
M 165 159.95
Q 167.25 159.05 172.4 158.95
L 183.7 159.7
Q 195.65 161.45 203.45 166.25
L 204.2 166.6
Q 205.45 166.85 206.2 165.6 207.2 163.95 205.6 162.85 196.9 157.55 184.2 155.7 170.65 153.65 163.6 156.2 161.85 156.8 162.45 158.8 163.1 160.6 165 159.95
M 213.5 146.65
Q 213.1 145.5 211.85 145 205.2 142 196.9 140.85 186.35 139.2 174.8 140.35 164.25 141.35 158.8 144.1 157.7 144.6 157.3 145.85 156.95 147.15 157.55 148.25 158.3 149.5 159.85 149.75
L 161.7 149.5
Q 165.75 147.15 175.4 146.4 186.1 145.25 196.05 146.9 203.3 147.9 209.5 150.5 210.6 151.05 211.75 150.5 213 150.15 213.5 148.9 214 147.75 213.5 146.65
M 219.4 136.45
Q 220.9 137.1 222.55 136.45 224.05 135.8 224.8 134.3 225.45 132.8 224.8 131.3 224.2 129.65 222.7 129.05 213.1 124.9 202.05 123.35 187.6 121.1 171.5 122.6 156.95 124 149.65 127.9 148.15 128.65 147.65 130.3 147.15 131.8 148 133.3 149 135.05 150.9 135.45
L 153.4 134.95
Q 159.2 131.8 172.25 130.65 186.35 129.3 200.8 131.3 212 132.95 219.4 136.45
M 249.45 58
L 249.3 57.9
Q 243.8 53 238.25 49.2
L 238.5 51.85
Q 243.65 55.5 248.05 59.5 246.05 61.9 245.95 64.95 245.95 67.95 247.95 70.1 249.95 72.2 252.95 72.35 256.1 72.6 258.5 70.6 263.65 76.85 268.05 84.8 265.3 86.3 264.3 89.2 263.3 92.1 264.55 94.7 265.8 97.35 268.55 98.5 271.3 99.6 274.35 98.6 277.25 106.8 278.75 115.1 275.6 115.6 273.7 118.1 271.8 120.5 272.05 123.35 272.35 126.25 274.6 128.3 277 130.3 280.1 130.3 280.25 137.85 279.1 146.4
L 279 147.25
Q 275.85 146.75 273.2 148.5 270.7 150.15 270.05 152.9 269.3 155.7 270.8 158.45 272.45 161.1 275.35 162.1 272.7 170.4 268.8 177.8
L 268.7 177.8
Q 265.9 176.4 263 177.15 260 177.8 258.35 180.3 256.85 182.85 257.5 185.7 258 188.75 260.5 190.6 255.75 197.15 249.2 203.3 246.95 201.05 243.9 200.8 240.9 200.55 238.65 202.3 236.4 204.05 235.85 207.2 235.5 210.25 237.25 212.85
L 232.35 215.9 232.1 216 222.3 221.15
Q 221.05 218.25 218.15 217 215.4 215.75 212.6 216.75 210 217.75 208.6 220.4 207.2 223.2 207.95 226.3 198.8 228.7 191.25 229.35 190.9 226.2 188.6 224.05 186.5 222.05 183.45 222.05 180.55 222.05 178.45 224.2 176.15 226.3 175.9 229.45
L 167.85 228.6
Q 164 228.1 159.1 226.8 159.85 223.8 158.3 221.05 156.95 218.4 154.15 217.5 151.4 216.65 148.65 217.9 145.9 219.15 144.6 222.05 136.7 218.9 129.55 214.15 131.15 211.5 130.65 208.45 130.15 205.45 127.9 203.7 125.65 201.95 122.6 202.3 119.5 202.7 117.35 204.95 110.95 199.3 105.65 192.5
L 105.8 192.5
Q 108.15 190.5 108.65 187.5 109.15 184.45 107.55 182.05 105.9 179.7 103 179.05 100 178.3 97.25 179.8 92.95 172.15 90.2 164.35 93.1 163.2 94.6 160.6 96 157.95 95.35 155.05 94.6 152.3 91.95 150.65 89.3 149.15 86.3 149.65
L 86.15 149.65
Q 84.65 141.35 84.65 132.7 87.8 132.55 90.05 130.55 92.35 128.4 92.6 125.5 92.7 122.6 90.8 120.35 88.8 117.95 85.65 117.45 86.95 109.15 89.7 100.9
L 95.45 100.6
Q 98.35 99.35 99.35 96.75 100.5 94.1 99.5 91.2 98.35 88.3 95.6 86.8 99.6 79.15 104.8 72.45 107.3 74.35 110.45 74.1 113.45 73.85 115.35 71.7 117.35 69.6 117.2 66.45 117.1 63.4 114.95 61.15
L 114.95 61.05 121.25 55.65 121.35 49.85
Q 114.95 54.1 109.45 59.5 107.8 61.15 107.8 63.15 107.8 65.05 109.15 66.7 110.3 67.8 110.05 69.2
L 109.7 70.1
Q 108.15 69.45 106.55 68.2 104.65 66.7 102 67.45 99.75 67.95 98.75 70.45
L 98.1 72.1
Q 93.2 78.65 89.05 86.55 88.05 88.45 88.7 90.55 89.55 92.6 91.2 93.35 93.1 94.45 92.85 96.35
L 92.7 96.85 91.45 96.75 89.55 96.2
Q 87.45 95.6 85.55 96.75 83.55 97.75 83.15 99.85
L 82.65 101.5
Q 79.9 110.2 78.65 118.7 78.25 120.75 79.5 122.5 80.65 124.15 82.8 124.5 84.05 124.65 84.8 125.5 85.4 126.4 85.3 127.25
L 85.3 127.4 85.05 127.9 82.65 128.55
Q 80.9 128.55 79.5 129.65 78.15 130.8 77.9 132.4
L 77.5 133.7 77.5 134.8
Q 77.5 144.1 79.15 152.65 79.5 154.8 81.25 155.95 83.05 157.05 85.05 156.7 85.55 156.45 85.9 156.7 87.8 156.95 88.3 158.45
L 88.3 159.3
Q 88.05 161.2 86.3 161.7 84.3 162.45 83.55 164.25 82.55 166.25 83.3 168.1 86.55 177.4 90.7 184.45 91.7 186.2 93.85 186.85 95.75 187.35 97.6 186.35 98.25 185.95 99.5 185.95 100.65 186.2 101.25 187 101.65 187.85 101.5 188.75 101.5 189.85 100.4 190.75 98.85 191.9 98.6 194 98.25 196.05 99.6 197.8 105.15 204.8 111.95 210.85 113.7 212.35 115.7 212 117.95 211.75 119 210.35 120.35 209.1 121.6 209.35
L 122.6 209.85
Q 123.9 210.6 123.65 212.35
L 123.15 213.5
Q 122.1 215.4 122.5 217.25 122.9 219.4 124.65 220.55 133.05 225.8 140.45 228.85
L 144.25 228.95
Q 146 228.2 146.9 226.45
L 147.15 226.2
Q 148 224.05 150.15 224.3
L 150.55 224.45
Q 151.3 224.55 151.8 225.45 152.3 226.45 152.15 227.6
L 152.05 227.85
Q 151.55 229.95 152.65 231.6 153.8 233.35 155.8 233.85
L 165 235.75 173.4 236.65 174.9 236.5 177.55 235.5 178.8 234.5
Q 179.95 233.35 180.2 231.7
L 180.2 229.95 180.95 229.35 181.3 229.2 181.7 229.2
Q 183.95 229.45 184.1 231.95 184.35 233.85 185.85 235.25 187.35 236.65 189.5 236.35 198.9 235.6 207.1 233.25
L 209.25 232.6
Q 211.1 231.95 212 230.2 213 228.45 212.5 226.55 212.1 225.2 212.1 223.7
L 212.25 223.7 213.25 223.55
Q 214.9 223.8 215.65 225.3 216.4 227.2 218.3 227.95
L 222.3 227.85
Q 234 222.55 240 218.55 241.55 217.5 242.05 215.65 242.55 213.85 241.8 212.25 240.9 210.25 238.9 209.6 239.15 208.7 239.65 208.35 240.4 207.85 241.55 207.95 242.65 208.2 243.3 208.85 244.9 210.5 246.8 210.5 249.05 210.5 250.45 209.1 256.85 203.3 262.4 195.75 264.65 192.9 262.4 189.85 262.15 189.25 261.5 188.85 260 187.75 260.25 185.95
L 260.5 185.1 261.15 184.7 263 184.6 264.65 185.1
Q 267.05 186.2 269.3 185.1 271.2 184.2 271.8 182.05 274.6 176.65 278 165.75 278.75 163.85 277.75 161.85
L 277 160.85 276.6 160.45 274.7 159.45 273.85 158.95 273.45 158.45
Q 272.45 157.45 272.7 156.45
L 272.7 156.3
Q 272.95 155.45 273.85 154.8 274.85 154.15 276.1 154.4
L 278 154.3 279.25 153.9
Q 282.4 153.15 283 149.9
L 283.15 149.5 282.95 142.5
Q 282.75 135.65 282.9 134.8
L 283 132.3
Q 283 130.55 281.9 129.15
L 281.4 128.65
Q 280 127.4 277.85 127.4
L 277.5 127.25
Q 275.2 127.15 274.95 125
L 274.95 124.5
Q 275.2 122.5 277.5 122.1
L 280 121.5
Q 281.9 121 282.9 119.25 283.9 117.6 283.5 115.7 282.75 111.55 280.35 106.4
L 277 99 275.6 97.1
Q 274.6 96.1 272.95 95.7
L 270.55 95.95 268.95 96.1
Q 268.05 96.1 267.3 95.35
L 267.15 95.2 266.9 94.7
Q 266.65 93.95 266.8 93.45 267.05 91.95 268.2 91.3
L 269.95 90.55
Q 271.95 89.55 272.7 87.55 273.35 85.4 272.35 83.55 270.2 79.75 266.05 75.6
L 260.25 69.6 260.15 69.45 260.15 69.35 259.75 68.95
Q 258.5 67.8 256.85 67.7 255 67.55 253.35 68.7
L 253.2 68.7
Q 252.1 69.7 250.85 69.45 249.95 69.2 249.7 68.95
L 249.45 68.7
Q 248.55 67.8 248.95 66.55 248.95 65.7 249.7 64.95 250.95 63.4 250.95 61.55 250.95 59.9 249.7 58.4
L 249.45 58
M 229.35 -2.8
Q 229.2 -2.2 232.25 -2.2 235.1 -2.3 235.35 -3.45 237.15 -10.1 234.5 -16.75 231.6 -23.8 225.2 -26.2
L 221.65 -25.8
Q 219.05 -25.05 220.15 -24.7 226.05 -22.45 228.7 -15.5 231.1 -9.1 229.35 -2.8
M 219.15 -15.5
Q 214.15 -16.25 204.95 -13.65 191.15 -9.35 171 1.7
L 162.85 0.2
Q 149.15 -1.7 140.45 -1.45 134.7 -1.2 130.55 0.2 128.55 0.95 126.75 2.45 125.15 4.1 124.75 6.5
L 124.75 8.6
Q 125.15 11.9 127.8 13.9 130.15 15.55 133.3 15.9
L 145.5 15.4
Q 132.45 27.2 129.65 45.2 128.55 52.6 129.65 60.4
L 129.9 62.3 132.8 62.65
Q 132.3 74 133.2 87.55 134.45 107.15 138.45 122.85 139.2 127.4 142.75 125.65
L 144.85 124.65
Q 156.55 116.7 170.65 115.6
L 191.4 114.3
Q 199.05 114.2 208.1 115.6
L 218.05 117.85
Q 228.85 120.5 233.6 122.5 235 122.85 235.75 122.5 236.5 122.1 236.75 121.25
L 237.25 118.35
Q 239.25 104.65 235 78.65 233.6 70.35 230.95 61.15
L 229.2 56.25 233.6 55.25 233.35 53
Q 231.1 37.25 221.4 24.95 212.1 13 198.4 7.35 209.85 6.25 215.9 4.1 220.4 2.45 222.95 0.45 226.2 -2.45 226.7 -5.7
L 226.7 -8.5
Q 226.3 -11.5 224.05 -13.4 222.15 -15.15 219.15 -15.5
M 218.4 -10.5
Q 219.8 -10.35 220.8 -9.6
L 221.3 -9
Q 213.9 -1.05 182.35 2.95
L 179.3 2.95
Q 189.1 -2.2 198.8 -6.1 212.25 -11.35 218.3 -10.5
L 218.4 -10.5
M 162.1 5.2
L 163.2 5.35 158.8 7 150.4 9.25
Q 139.6 11.9 134.05 11 132.2 10.65 130.8 9.85 129.9 9.25 129.8 8
L 129.65 7.5
Q 134.3 3.95 151.05 3.95
L 162.1 5.2
M 173.55 8.75
Q 182.1 12.65 188.5 18.55 203.3 31.85 207.1 52.85
L 207.1 53.1 207.2 53.75
Q 181.85 60.3 161.6 58 160.85 56.75 160.85 55.65
L 160.85 55.5
Q 160.85 49.6 161.6 44.55 164.1 28.2 173.55 8.75
M 185.6 89.05
Q 181.55 92.6 179.2 91.05 177.2 90.05 148.25 64.3 166.25 65.55 178.05 64.7 192 63.55 217.4 58.65
L 185.6 89.05
M 176.8 98.5
Q 181.45 100 185.2 96.5 189.25 93.1 221.05 60.4 226.05 69.05 229.6 86.3 232.85 102.4 233 115.7 232.6 117.85 230.2 117.2 216.65 113.3 208.6 112.05
L 204.2 111.3 190.25 109.8
Q 184.6 109.55 171.5 110.2
L 170 110.3 157.05 111.45
Q 150.65 112.2 147 113.45 145.25 114.3 144.75 112.55 142.5 103.4 141.75 93.1 141.35 88.55 140.85 76.1
L 140.85 70.6
Q 174.15 97.75 176.8 98.5
M 232.5 -34.85
L 228.95 -34.5
Q 226.3 -33.85 227.45 -33.5 238.4 -29.85 241.9 -19.05 245.05 -9.35 241.65 2.2 241.4 2.7 244.3 2.7 247.2 2.6 247.55 1.45 251.2 -10.35 247.7 -20.3 243.8 -31.25 232.5 -34.85
M 120.35 -2.45
Q 117.45 -2.45 117.1 -1.45 114.95 3.7 115.7 9.25 116.45 15.15 120.25 18.8
L 123.75 18.9
Q 126.5 18.15 126 17.65 122.5 14.25 121.75 8.5 121 3.1 122.9 -1.7 123.25 -2.45 120.35 -2.45
M 113.05 -4.85
Q 113.3 -5.7 110.55 -5.6 107.65 -5.6 107.15 -4.6 103.75 3.45 104.8 11.15 105.9 19.55 111.95 25.2
L 115.45 25.35
Q 118.1 24.6 117.6 24.1 111.8 18.65 110.8 10.5 109.8 2.95 113.05 -4.85 Z"/>
</g>

<g id="Sprites_Sprite_50_0_Layer1_0_FILL">
<path fill="#000000" stroke="none" d="
M 132.45 177.95
Q 129.4 182.05 130.15 186.35 130.9 190.5 134.8 193.25 138.85 196.05 142.85 195 147 194 150.15 189.35
L 140.85 182.85 138.45 186.2 143.1 189.35
Q 140.7 191.4 137.95 189.5 133.55 186.45 137.2 181.05 138.7 178.8 140.7 178.2 142.75 177.4 144.6 178.7 147.25 180.7 146 183.95
L 151.05 187
Q 152.65 183.6 151.65 180.3 150.65 177.15 147.4 174.9 143.35 172.15 139.2 173 135.2 173.9 132.45 177.95
M 111.95 167
L 114.95 171.4 124 164.6 118.2 177.55 121.75 181.8 138.95 168.9 135.8 164.5 125.15 172.65 130.9 159.7 127.65 155.45 111.95 167
M 117.1 147.9
L 121 146.65 124.15 156.3 128.4 154.9 123.75 140.1 104.15 146.25 108.3 161.2 112.7 159.95 109.95 150.15 113.2 149.15 115.6 157.05 119.5 155.8 117.1 147.9
M 124.15 129.9
L 123.75 123 103.75 122.35 103.65 127.9 108.55 128.05 108.3 130.55
Q 107.8 140.35 115.7 140.7 123.75 140.95 124.15 129.9
M 119.5 128.3
L 119.6 130.55
Q 119.5 135.3 116.1 135.3 112.45 135.2 112.55 130.4
L 112.8 128.15 119.5 128.3
M 239.5 145.85
L 238 151.15 257.85 156.95 259.5 151.65 239.5 145.85
M 217.4 177.15
L 211.1 181.8 222.05 198.15 226.55 194.9 217.4 182.45 227.85 190.6 232.35 187.25 227.45 174.4 237.75 188.1 242.15 184.7 228.45 167.85 222.3 172.15 227.2 184.95 217.4 177.15
M 235.5 156.55
L 230.95 163.85 244.9 179.7 248.05 174.9 245.8 172.65 249.7 166.6 253.85 168 257 162.95 235.5 156.55
M 242.8 169.5
L 236 162.35 245.55 165.25 242.8 169.5
M 198.15 197.8
L 189.35 186.7 184.1 187.75 187.1 206.95 192.4 206.2 190.5 195.15 199.3 206.35 204.7 205.2 201.3 183.85 195.9 184.7 198.15 197.8
M 180.95 186.45
L 175.4 186.1 174.05 206.85 179.55 207.2 180.95 186.45
M 170.5 194.4
Q 171.65 191.25 172.4 185.45
L 167 184.1
Q 166.1 189.6 165.1 193 162.95 199.8 159.45 198.8 155.95 197.65 158.2 190.25 158.95 187.75 160.85 183.85
L 155.8 181.55
Q 153.8 185.7 152.65 189.1 149 201.2 157.95 203.95 166.85 206.6 170.5 194.4
M 240.8 138.1
L 240.65 143.6 261.15 144.25 261.75 129.8 256.75 129.55 256.35 138.6 240.8 138.1 Z"/>
</g>

<path id="Symbol_2_0_Layer0_0_1_STROKES" stroke="#DFDFDF" stroke-width="6" stroke-linejoin="round" stroke-linecap="round" fill="none" d="
M 791.35 24.6
L 791.35 439.55
Q 791.35 444.6 786.35 444.5
L 70.6 440.65 69.25 440.9 66.2 442.6
Q 63.9 443.55 62.4 443.85
L 46.5 444.9
Q 42 445.1 30.65 444.65
L 30.65 19.65
Q 42 20.1 46.5 19.9
L 61.75 18.95 61.75 6.95
Q 64 5.6 68.55 4.6 73 3.6 79.75 2.85
L 109.15 1.2
Q 129.75 0.7 175.55 1.5
L 402.55 5.25 430.45 6.05
Q 488.45 7.75 573.25 8.75 687.35 10.1 748.9 6.75
L 761.75 5.95 761.75 10.8 763.65 10.8 763.65 16.5 766.4 16.5 766.4 19.45 786.35 19.55
Q 791.35 19.6 791.35 24.6 Z"/>

<path id="Sprites_Sprite_33_0_Layer0_0_1_STROKES" stroke="#000000" stroke-width="2" stroke-linejoin="round" stroke-linecap="round" fill="none" d="
M -341.75 210.6
L -340.4 210.35 370.85 214.2
M 371.55 214.2
L 375.35 214.2
Q 380.35 214.3 380.35 209.25
L 380.35 -201.7
M 380.35 -201.95
L 380.35 -205.7
Q 380.35 -210.7 375.35 -210.75
L 371.15 -210.75
M 370.85 -210.75
L -340.8 -214.6 -341.75 -214.4
M -380.35 -210.65
Q -369 -210.2 -364.5 -210.4
L -348.6 -211.45 -344.8 -212.7
Q -343.4 -213.35 -342.55 -213.95
L -341.75 -214.4
M -341.75 210.6
L -342.55 211.05
Q -343.4 211.65 -344.8 212.3
L -348.6 213.55 -356.6 214.2 -364.5 214.6
Q -369 214.8 -380.35 214.35
M -380.35 209.35
L -380.35 -206.65 -380.35 -210.65
M -380.35 214.35
L -380.35 209.35"/>

<path id="Sprites_Sprite_35_0_Layer0_0_1_STROKES" stroke="#000000" stroke-width="2" stroke-linejoin="round" stroke-linecap="round" fill="none" d="
M 47.1 13.25
L 47.1 10.75 46.95 9.95 46.8 8.65
Q 46.2 5.3 42.3 2.9 37.75 0 31.3 0 24.85 0 20.25 2.9 17.35 4.7 16.3 7
L 15.6 9.85
Q 15.05 12 13.95 13.8 10.3 19.15 2.1 21.75 -0.05 22.6 0 27.35
M 47.1 13.25
L 47.1 16.25 47.1 22.9 47.1 23.55 47.1 33.1 40.8 33.4 40.8 35.25 21.5 35.25 21.5 33.4 3.5 32.45 2.1 30.1 15.2 25.65 1.5 27.55 0 27.75 0 27.35
M 23.65 12.35
Q 24.2 11.65 25.2 11.05 27.75 9.45 31.3 9.45 34.85 9.45 37.35 11.05 38.35 11.65 38.95 12.35
L 39.7 13.6 39.9 14.85 39.9 15.1
M 22.7 15.1
L 22.7 14.85 22.9 13.6 23.65 12.35 25.2 13.7
Q 27.75 15.3 31.3 15.3 34.85 15.3 37.35 13.7 38.35 13.1 38.95 12.35
M 22.7 15.1
L 22.85 16.4
M 39.9 15.1
L 39.75 16.4"/>

<path id="Sprites_Sprite_37_0_Layer0_0_1_STROKES" stroke="#000000" stroke-width="2" stroke-linejoin="round" stroke-linecap="round" fill="none" d="
M 47.2 21.05
L 47.2 28.05 47.2 163.55 47.2 170.55 47.2 321.3 26.55 321.3 0 321.3 0 170.55 0 163.55 0 28.05 0 21.05 0 4.8 0 1.55
M 47.2 1.55
L 47.2 4.8 47.2 21.05
M 0 1.55
L 7.4 0.75 21.4 0.05 26.4 0.05 26.95 0.05 30.7 0.15 47.2 1.55"/>

<path id="Shapes_Shape_38_0_Layer1_0_1_STROKES" stroke="#5B5B5B" stroke-width="5" stroke-linejoin="round" stroke-linecap="round" fill="none" d="
M 7.85 0.95
L 8.45 1.45
Q 9.9 2.9 9.9 4.95 9.9 7 8.45 8.45 7 9.9 4.95 9.9 2.9 9.9 1.45 8.45
L 0.95 7.85"/>

<path id="Shapes_Shape_38_0_Layer1_0_2_STROKES" stroke="#A7A7A7" stroke-width="5" stroke-linejoin="round" stroke-linecap="round" fill="none" d="
M 0.95 7.85
Q 0 6.6 0 4.95 0 2.9 1.45 1.45 2.9 0 4.95 0 6.6 0 7.85 0.95"/>

<path id="Shapes_Shape_38_0_Layer0_0_1_STROKES" stroke="#000000" stroke-width="2" stroke-linejoin="round" stroke-linecap="round" fill="none" d="
M 9.9 4.95
Q 9.9 7 8.45 8.45 7 9.9 4.95 9.9 2.9 9.9 1.45 8.45 0 7 0 4.95 0 2.9 1.45 1.45 2.9 0 4.95 0 7 0 8.45 1.45 9.9 2.9 9.9 4.95 Z"/>

<path id="Shapes_Shape_38_0_Layer0_0_2_STROKES" stroke="#000000" stroke-width="1.5" stroke-linejoin="round" stroke-linecap="round" fill="none" d="
M 3.8 3.9
L 5.9 6"/>

<path id="Symbol_1_0_Layer0_0_1_STROKES" stroke="#000000" stroke-width="2" stroke-linejoin="round" stroke-linecap="round" fill="none" d="
M 700 9.8
L 701.9 9.8 701.9 15.5 704.65 15.5 704.65 20.4 707.7 20.4 707.7 24.5 710.95 24.5 710.95 28.45 715.25 28.45 715.25 428.45 10.65 423.65 8.05 421.3 5.35 418.9 2.7 416.55 0 414.15 0 5.95
Q 2.25 4.6 6.8 3.6
L 18 1.85 47.4 0.2
Q 68 -0.3 113.8 0.5
L 340.8 4.25 368.7 5.05
Q 407.3 6.15 457.75 7
L 511.5 7.75
Q 625.6 9.1 686.5 5.8
L 699.8 5 700 4.95 700 9.8 700 413.15
M 18 412.3
L 21.9 411.95
Q 67.8 407.9 113.8 408.7
L 340.8 412.45 511.5 415.95 553.4 416 666 415 699.8 413.2 700 413.15
M 18 412.3
L 6.8 413.4 0 414.15"/>

<path id="Symbol_1_0_Layer0_0_2_STROKES" stroke="#646257" stroke-width="1" stroke-linejoin="round" stroke-linecap="round" fill="none" d="
M 708.7 424.65
L 519.75 424.3 346.45 422.5
Q 216 421.15 123.25 420.45 76.65 420 30.1 420.8
L 8.05 421.3
M 704.65 420.9
L 673.05 421.6 559.35 421.7 384.7 419.9 344.55 419.15
Q 194.65 417.25 120.1 416.55 73.7 416 27.35 417.85
L 5.35 418.9
M 701.9 417.1
L 669.55 418.3 556.4 418.85 502.6 418.65
M 457.75 417.9
L 116.95 412.6
Q 70.75 411.95 24.65 414.9
L 2.7 416.55
M 457.75 417.9
L 502.6 418.65"/>

<path id="Symbol_1_0_Layer0_0_3_STROKES" stroke="#8C8773" stroke-width="1" stroke-linejoin="round" stroke-linecap="round" fill="none" d="
M 701.9 417.1
L 701.9 15.5
M 710.95 426.2
L 710.95 28.45
M 707.7 24.5
L 707.7 423.9
M 704.65 420.9
L 704.65 20.4"/>

<path id="Shapes_Shape_42_0_Layer1_0_1_STROKES" stroke="#FFFFFF" stroke-width="6" stroke-linejoin="round" stroke-linecap="round" fill="none" d="
M 4.85 -5.45
Q 6.7 -3.15 6.55 0.05 6.45 3.25 4.4 5.6 2.4 7.9 -0.35 7.9 -3.1 7.9 -4.95 5.6 -6.75 3.25 -6.6 0.05 -6.45 -3.15 -4.5 -5.45 -2.45 -7.8 0.3 -7.8 3.05 -7.8 4.85 -5.45 Z"/>

<path id="Sprites_Sprite_45_0_Layer0_0_1_STROKES" stroke="#000000" stroke-width="1" stroke-linejoin="round" stroke-linecap="round" fill="none" d="
M 4.3 -33.25
Q 2.9 -32.65 2.9 -30.7 2.9 -28.75 4.05 -27.25"/>
</defs>

<g transform="matrix( 1, 0, 0, 1, -43.7,19.05) ">
<g transform="matrix( 1, 0, 0, 1, 0,0) ">
<use xlink:href="#Symbol_2_0_Layer0_0_1_STROKES"/>
</g>

<g transform="matrix( 1, 0, 0, 1, 411,230.3) ">
<g transform="matrix( 1, 0, 0, 1, 0,0) ">
<use xlink:href="#Sprites_Sprite_33_0_Layer0_0_FILL"/>

<use xlink:href="#Sprites_Sprite_33_0_Layer0_0_1_STROKES"/>
</g>
</g>

<g transform="matrix( 1, 0, 0, 1, 14.65,52.35) ">
<g transform="matrix( 1, 0, 0, 1, 0,0) ">
<use filter="url(#Filter_1)" xlink:href="#Sprites_Sprite_35_0_Layer0_0_FILL"/>

<use filter="url(#Filter_1)" xlink:href="#Sprites_Sprite_35_0_Layer0_0_1_STROKES"/>
</g>
</g>

<g transform="matrix( 1, 0, 0, 1, 19.55,81.7) ">
<g transform="matrix( 1, 0, 0, 1, 0,0) ">
<use xlink:href="#Sprites_Sprite_37_0_Layer0_0_FILL"/>

<use xlink:href="#Sprites_Sprite_37_0_Layer0_0_1_STROKES"/>
</g>
</g>

<g transform="matrix( 1, 0, 0, 1, 41,111.95) ">
<g transform="matrix( 1, 0, 0, 1, 0,0) ">
<g transform="matrix( 1, 0, 0, 1, 0,0) ">
<use xlink:href="#Shapes_Shape_38_0_Layer1_0_1_STROKES"/>

<use xlink:href="#Shapes_Shape_38_0_Layer1_0_2_STROKES"/>
</g>

<g transform="matrix( 1, 0, 0, 1, 0,0) ">
<use xlink:href="#Shapes_Shape_38_0_Layer0_0_FILL"/>

<use xlink:href="#Shapes_Shape_38_0_Layer0_0_1_STROKES"/>

<use xlink:href="#Shapes_Shape_38_0_Layer0_0_2_STROKES"/>
</g>
</g>
</g>

<g transform="matrix( 1, 0, 0, 1, 41,354.95) ">
<g transform="matrix( 1, 0, 0, 1, 0,0) ">
<g transform="matrix( 1, 0, 0, 1, 0,0) ">
<use xlink:href="#Shapes_Shape_38_0_Layer1_0_1_STROKES"/>

<use xlink:href="#Shapes_Shape_38_0_Layer1_0_2_STROKES"/>
</g>

<g transform="matrix( 1, 0, 0, 1, 0,0) ">
<use xlink:href="#Shapes_Shape_38_0_Layer0_0_FILL"/>

<use xlink:href="#Shapes_Shape_38_0_Layer0_0_1_STROKES"/>

<use xlink:href="#Shapes_Shape_38_0_Layer0_0_2_STROKES"/>
</g>
</g>
</g>

<g transform="matrix( 1, 0, 0, 1, 419.35,215.2) ">
<g transform="matrix( 1, 0, 0, 1, -357.6,-214.2) ">
<g transform="matrix( 1, 0, 0, 1, 0,0) ">
<use xlink:href="#Symbol_1_0_Layer0_0_FILL"/>

<use xlink:href="#Symbol_1_0_Layer0_0_1_STROKES"/>

<use xlink:href="#Symbol_1_0_Layer0_0_2_STROKES"/>

<use xlink:href="#Symbol_1_0_Layer0_0_3_STROKES"/>
</g>
</g>

<g transform="matrix( 1, 0, 0, 1, -358.6,-215.2) ">
<g transform="matrix( 1, 0, 0, 1, 0,0) ">
<use xlink:href="#Symbol_1_0_Layer0_0_FILL"/>

<use xlink:href="#Symbol_1_0_Layer0_0_1_STROKES"/>

<use xlink:href="#Symbol_1_0_Layer0_0_2_STROKES"/>

<use xlink:href="#Symbol_1_0_Layer0_0_3_STROKES"/>
</g>
</g>
</g>

<g transform="matrix( 1, 0, 0, 1, 0,34.75) ">
<g transform="matrix( 1, 0, 0, 1, 89.8,30.45) ">
<g transform="matrix( 1, 0, 0, 1, 0,0) ">
<g transform="matrix( 1, 0, 0, 1, 0,0) ">
<use xlink:href="#Shapes_Shape_42_0_Layer1_0_1_STROKES"/>
</g>

<g transform="matrix( 1, 0, 0, 1, 0,0) ">
<use xlink:href="#Shapes_Shape_42_0_Layer0_0_FILL"/>
</g>
</g>
</g>

<g transform="matrix( 1, 0, 0, 1, 48.6,35.55) ">
<g transform="matrix( 1, 0, 0, 1, 0,0) ">
<use xlink:href="#Sprites_Sprite_45_0_Layer0_0_FILL"/>

<use xlink:href="#Sprites_Sprite_45_0_Layer0_0_1_STROKES"/>
</g>
</g>
</g>

<g transform="matrix( 1, 0, 0, 1, 0,177.75) ">
<g transform="matrix( 1, 0, 0, 1, 89.8,30.45) ">
<g transform="matrix( 1, 0, 0, 1, 0,0) ">
<g transform="matrix( 1, 0, 0, 1, 0,0) ">
<use xlink:href="#Shapes_Shape_42_0_Layer1_0_1_STROKES"/>
</g>

<g transform="matrix( 1, 0, 0, 1, 0,0) ">
<use xlink:href="#Shapes_Shape_42_0_Layer0_0_FILL"/>
</g>
</g>
</g>

<g transform="matrix( 1, 0, 0, 1, 48.6,35.55) ">
<g transform="matrix( 1, 0, 0, 1, 0,0) ">
<use xlink:href="#Sprites_Sprite_45_0_Layer0_0_FILL"/>

<use xlink:href="#Sprites_Sprite_45_0_Layer0_0_1_STROKES"/>
</g>
</g>
</g>

<g transform="matrix( 1, 0, 0, 1, 6,322.75) ">
<g transform="matrix( 1, 0, 0, 1, 89.8,30.45) ">
<g transform="matrix( 1, 0, 0, 1, 0,0) ">
<g transform="matrix( 1, 0, 0, 1, 0,0) ">
<use xlink:href="#Shapes_Shape_42_0_Layer1_0_1_STROKES"/>
</g>

<g transform="matrix( 1, 0, 0, 1, 0,0) ">
<use xlink:href="#Shapes_Shape_42_0_Layer0_0_FILL"/>
</g>
</g>
</g>

<g transform="matrix( 1, 0, 0, 1, 48.6,35.55) ">
<g transform="matrix( 1, 0, 0, 1, 0,0) ">
<use xlink:href="#Sprites_Sprite_45_0_Layer0_0_FILL"/>

<use xlink:href="#Sprites_Sprite_45_0_Layer0_0_1_STROKES"/>
</g>
</g>
</g>

<g transform="matrix( 1, 0, 0, 1, 20.3,374.3) ">
<g transform="matrix( 1, 0, 0, 1, 0,0) ">
<use xlink:href="#Sprites_Sprite_35_0_Layer0_0_FILL"/>

<use xlink:href="#Sprites_Sprite_35_0_Layer0_0_1_STROKES"/>
</g>
</g>

<g id="postage_mc" transform="matrix( 0.31390380859375, -0.0841064453125, 0.0841064453125, 0.31390380859375, 75.05,39.1) ">
<g transform="matrix( 1, 0, 0, 1, 0,0) ">
<use xlink:href="#Sprites_Sprite_50_0_Layer2_0_FILL"/>
</g>

<g transform="matrix( 1, 0, 0, 1, 0,0) ">
<use xlink:href="#Sprites_Sprite_50_0_Layer1_0_FILL"/>
</g>
</g>
</g>

<g transform="matrix( 1, 0, 0, 1, -43.7,18.05) ">
<g transform="matrix( 1, 0, 0, 1, 0,0) ">
<use xlink:href="#Symbol_2_0_Layer0_0_1_STROKES"/>
</g>

<g transform="matrix( 1, 0, 0, 1, 411,230.3) ">
<g transform="matrix( 1, 0, 0, 1, 0,0) ">
<use xlink:href="#Sprites_Sprite_33_0_Layer0_0_FILL"/>

<use xlink:href="#Sprites_Sprite_33_0_Layer0_0_1_STROKES"/>
</g>
</g>

<g transform="matrix( 1, 0, 0, 1, 14.65,52.35) ">
<g transform="matrix( 1, 0, 0, 1, 0,0) ">
<use filter="url(#Filter_1)" xlink:href="#Sprites_Sprite_35_0_Layer0_0_FILL"/>

<use filter="url(#Filter_1)" xlink:href="#Sprites_Sprite_35_0_Layer0_0_1_STROKES"/>
</g>
</g>

<g transform="matrix( 1, 0, 0, 1, 19.55,81.7) ">
<g transform="matrix( 1, 0, 0, 1, 0,0) ">
<use xlink:href="#Sprites_Sprite_37_0_Layer0_0_FILL"/>

<use xlink:href="#Sprites_Sprite_37_0_Layer0_0_1_STROKES"/>
</g>
</g>

<g transform="matrix( 1, 0, 0, 1, 41,111.95) ">
<g transform="matrix( 1, 0, 0, 1, 0,0) ">
<g transform="matrix( 1, 0, 0, 1, 0,0) ">
<use xlink:href="#Shapes_Shape_38_0_Layer1_0_1_STROKES"/>

<use xlink:href="#Shapes_Shape_38_0_Layer1_0_2_STROKES"/>
</g>

<g transform="matrix( 1, 0, 0, 1, 0,0) ">
<use xlink:href="#Shapes_Shape_38_0_Layer0_0_FILL"/>

<use xlink:href="#Shapes_Shape_38_0_Layer0_0_1_STROKES"/>

<use xlink:href="#Shapes_Shape_38_0_Layer0_0_2_STROKES"/>
</g>
</g>
</g>

<g transform="matrix( 1, 0, 0, 1, 41,354.95) ">
<g transform="matrix( 1, 0, 0, 1, 0,0) ">
<g transform="matrix( 1, 0, 0, 1, 0,0) ">
<use xlink:href="#Shapes_Shape_38_0_Layer1_0_1_STROKES"/>

<use xlink:href="#Shapes_Shape_38_0_Layer1_0_2_STROKES"/>
</g>

<g transform="matrix( 1, 0, 0, 1, 0,0) ">
<use xlink:href="#Shapes_Shape_38_0_Layer0_0_FILL"/>

<use xlink:href="#Shapes_Shape_38_0_Layer0_0_1_STROKES"/>

<use xlink:href="#Shapes_Shape_38_0_Layer0_0_2_STROKES"/>
</g>
</g>
</g>

<g transform="matrix( 1, 0, 0, 1, 419.35,215.2) ">
<g transform="matrix( 1, 0, 0, 1, -357.6,-214.2) ">
<g transform="matrix( 1, 0, 0, 1, 0,0) ">
<use xlink:href="#Symbol_1_0_Layer0_0_FILL"/>

<use xlink:href="#Symbol_1_0_Layer0_0_1_STROKES"/>

<use xlink:href="#Symbol_1_0_Layer0_0_2_STROKES"/>

<use xlink:href="#Symbol_1_0_Layer0_0_3_STROKES"/>
</g>
</g>

<g transform="matrix( 1, 0, 0, 1, -358.6,-215.2) ">
<g transform="matrix( 1, 0, 0, 1, 0,0) ">
<use xlink:href="#Symbol_1_0_Layer0_0_FILL"/>

<use xlink:href="#Symbol_1_0_Layer0_0_1_STROKES"/>

<use xlink:href="#Symbol_1_0_Layer0_0_2_STROKES"/>

<use xlink:href="#Symbol_1_0_Layer0_0_3_STROKES"/>
</g>
</g>
</g>

<g transform="matrix( 1, 0, 0, 1, 0,34.75) ">
<g transform="matrix( 1, 0, 0, 1, 89.8,30.45) ">
<g transform="matrix( 1, 0, 0, 1, 0,0) ">
<g transform="matrix( 1, 0, 0, 1, 0,0) ">
<use xlink:href="#Shapes_Shape_42_0_Layer1_0_1_STROKES"/>
</g>

<g transform="matrix( 1, 0, 0, 1, 0,0) ">
<use xlink:href="#Shapes_Shape_42_0_Layer0_0_FILL"/>
</g>
</g>
</g>

<g transform="matrix( 1, 0, 0, 1, 48.6,35.55) ">
<g transform="matrix( 1, 0, 0, 1, 0,0) ">
<use xlink:href="#Sprites_Sprite_45_0_Layer0_0_FILL"/>

<use xlink:href="#Sprites_Sprite_45_0_Layer0_0_1_STROKES"/>
</g>
</g>
</g>

<g transform="matrix( 1, 0, 0, 1, 0,177.75) ">
<g transform="matrix( 1, 0, 0, 1, 89.8,30.45) ">
<g transform="matrix( 1, 0, 0, 1, 0,0) ">
<g transform="matrix( 1, 0, 0, 1, 0,0) ">
<use xlink:href="#Shapes_Shape_42_0_Layer1_0_1_STROKES"/>
</g>

<g transform="matrix( 1, 0, 0, 1, 0,0) ">
<use xlink:href="#Shapes_Shape_42_0_Layer0_0_FILL"/>
</g>
</g>
</g>

<g transform="matrix( 1, 0, 0, 1, 48.6,35.55) ">
<g transform="matrix( 1, 0, 0, 1, 0,0) ">
<use xlink:href="#Sprites_Sprite_45_0_Layer0_0_FILL"/>

<use xlink:href="#Sprites_Sprite_45_0_Layer0_0_1_STROKES"/>
</g>
</g>
</g>

<g transform="matrix( 1, 0, 0, 1, 6,322.75) ">
<g transform="matrix( 1, 0, 0, 1, 89.8,30.45) ">
<g transform="matrix( 1, 0, 0, 1, 0,0) ">
<g transform="matrix( 1, 0, 0, 1, 0,0) ">
<use xlink:href="#Shapes_Shape_42_0_Layer1_0_1_STROKES"/>
</g>

<g transform="matrix( 1, 0, 0, 1, 0,0) ">
<use xlink:href="#Shapes_Shape_42_0_Layer0_0_FILL"/>
</g>
</g>
</g>

<g transform="matrix( 1, 0, 0, 1, 48.6,35.55) ">
<g transform="matrix( 1, 0, 0, 1, 0,0) ">
<use xlink:href="#Sprites_Sprite_45_0_Layer0_0_FILL"/>

<use xlink:href="#Sprites_Sprite_45_0_Layer0_0_1_STROKES"/>
</g>
</g>
</g>

<g transform="matrix( 1, 0, 0, 1, 20.3,374.3) ">
<g transform="matrix( 1, 0, 0, 1, 0,0) ">
<use xlink:href="#Sprites_Sprite_35_0_Layer0_0_FILL"/>

<use xlink:href="#Sprites_Sprite_35_0_Layer0_0_1_STROKES"/>
</g>
</g>

<g id="postage_mc_FL" transform="matrix( 0.31390380859375, -0.0841064453125, 0.0841064453125, 0.31390380859375, 75.05,39.1) ">
<g transform="matrix( 1, 0, 0, 1, 0,0) ">
<use xlink:href="#Sprites_Sprite_50_0_Layer2_0_FILL"/>
</g>

<g transform="matrix( 1, 0, 0, 1, 0,0) ">
<use xlink:href="#Sprites_Sprite_50_0_Layer1_0_FILL"/>
</g>
</g>
</g>
</svg>
