
<svg xmlns="http://www.w3.org/2000/svg" version="1.1" xmlns:xlink="http://www.w3.org/1999/xlink" preserveAspectRatio="none" x="0px" y="0px" width="760px" height="480px" viewBox="0 0 760 480">
<defs>
<g id="Shapes_Shape_94_0_Layer1_0_FILL">
<path fill="#365D5D" stroke="none" d="
M 214.35 185.9
Q 206.75 169.55 201.25 153.2 198.15 144.05 195.75 134.9 185.8 97.55 172.3 0.05
L 0 29.8 24.45 219.2
Q 61.55 208.95 100.95 204.05
L 214.35 185.9 Z"/>
</g>

<g id="Shapes_Shape_94_0_Layer0_0_FILL">
<path fill="#EAE08C" stroke="none" d="
M 217.75 177.45
Q 209.85 161.85 204.05 146.25 115.2 72.9 0.55 28.45
L 28.45 209.25
Q 65.35 199.45 104.65 194.75
L 217.75 177.45 Z"/>

<path fill="#E0D682" stroke="none" d="
M 204.05 146.25
Q 200.8 137.5 198.2 128.8 187.55 93.1 172.3 0
L 0.55 28.45
Q 115.2 72.9 204.05 146.25 Z"/>
</g>

<path id="Shapes_Shape_94_0_Layer0_0_1_STROKES" stroke="#000000" stroke-width="2" stroke-linejoin="round" stroke-linecap="round" fill="none" d="
M 204.05 146.25
Q 200.8 137.5 198.2 128.8 187.55 93.1 172.3 0
L 0.55 28.45
M 204.05 146.25
Q 209.85 161.85 217.75 177.45
L 104.65 194.75
Q 65.35 199.45 28.45 209.25
L 0.55 28.45"/>
</defs>

<g transform="matrix( 1, 0, 0, 1, 276.15,134.45) ">
<g transform="matrix( 1, 0, 0, 1, 0,0) ">
<g transform="matrix( 1, 0, 0, 1, 0,0) ">
<use xlink:href="#Shapes_Shape_94_0_Layer1_0_FILL"/>
</g>

<g transform="matrix( 1, 0, 0, 1, 0,0) ">
<use xlink:href="#Shapes_Shape_94_0_Layer0_0_FILL"/>

<use xlink:href="#Shapes_Shape_94_0_Layer0_0_1_STROKES"/>
</g>
</g>
</g>
</svg>
